<svg width="180" height="30" viewBox="0 0 180 30" fill="none" xmlns="http://www.w3.org/2000/svg">
<path d="M11.9655 27.417C11.761 27.3156 11.6246 27.2474 11.6246 27.2474L11.8984 26.2787C11.8984 26.2787 12.0336 26.3401 12.2365 26.4327C12.4402 26.5222 12.7086 26.6527 12.9818 26.7645C13.1178 26.8225 13.2539 26.8802 13.3816 26.9343C13.4998 26.9852 13.6084 27.0263 13.705 27.0653C14.7023 26.7947 15.7023 26.5055 16.6728 26.2502C14.9009 22.5535 12.4784 22.5644 8.40528 19.0179C4.33219 15.4714 15.2143 11.7293 15.2143 11.7293C15.2143 11.7293 2.69255 9.83013 0.378726 17.1881C-1.63051 23.5786 4.91043 27.2109 6.97689 27.6075C8.80029 27.9569 9.8183 28.3346 12.0932 27.4804C12.0486 27.4583 12.0049 27.4364 11.9655 27.417ZM9.50679 12.6373C9.71804 12.5773 10.0046 12.5111 10.2895 12.4417C10.5755 12.3792 10.8605 12.3132 11.0754 12.2735C11.2901 12.2311 11.4331 12.2028 11.4331 12.2028L11.4526 12.3659C11.4526 12.3659 11.3108 12.4004 11.098 12.4518C10.8849 12.5008 10.6028 12.5789 10.3203 12.6533C10.0392 12.7347 9.75848 12.8121 9.54758 12.8817C9.33686 12.9481 9.19632 12.9924 9.19632 12.9924L9.15294 12.7327C9.15294 12.7327 9.29451 12.6943 9.50679 12.6373ZM6.0944 13.9328C6.1938 13.8764 6.31117 13.8128 6.44255 13.7523C6.57203 13.6902 6.71015 13.6213 6.84862 13.5576C6.98743 13.4983 7.12624 13.4394 7.25641 13.384C7.38606 13.326 7.50949 13.2829 7.61425 13.2425C7.82411 13.1633 7.96413 13.1104 7.96413 13.1104L8.03085 13.4171C8.03085 13.4171 7.89412 13.475 7.68858 13.5624C7.58624 13.6065 7.46575 13.6544 7.33955 13.7169C7.21302 13.7769 7.07802 13.8411 6.94301 13.9052C6.81007 13.9732 6.67886 14.0453 6.55474 14.1106C6.43114 14.1731 6.31602 14.2416 6.21731 14.3027C6.02007 14.4221 5.88834 14.5015 5.88834 14.5015L5.76059 14.1172C5.76042 14.1167 5.89388 14.0433 6.0944 13.9328ZM4.37973 21.7735C4.37973 21.7735 4.35466 21.7392 4.31075 21.6794C4.26823 21.6224 4.19977 21.5263 4.12475 21.4163C3.97453 21.1943 3.78126 20.8873 3.61427 20.5487C3.44504 20.2135 3.30536 19.8474 3.22342 19.558C3.18159 19.4143 3.15272 19.2908 3.13388 19.2036C3.1159 19.1162 3.10571 19.0663 3.10571 19.0663L3.56242 18.9099C3.56242 18.9099 3.57209 18.9517 3.58869 19.0247C3.60615 19.0975 3.63277 19.2009 3.67132 19.3223C3.74652 19.566 3.87513 19.8805 4.03296 20.174C4.18785 20.4697 4.37109 20.7438 4.51388 20.9428C4.58614 21.0421 4.64249 21.1178 4.69003 21.1778C4.73549 21.2358 4.7616 21.2691 4.7616 21.2691L4.37973 21.7735ZM4.7877 15.3575C4.73757 15.404 4.6679 15.4741 4.58596 15.5597C4.4233 15.7324 4.2143 15.9755 4.04005 16.2516C3.95171 16.3885 3.8715 16.5321 3.80615 16.6733C3.73856 16.8127 3.68602 16.9499 3.64695 17.0695C3.62776 17.1295 3.60944 17.1845 3.5982 17.2308C3.58576 17.2785 3.57417 17.3153 3.56553 17.3588C3.5479 17.4394 3.53787 17.4853 3.53787 17.4853L3.12299 17.3169C3.12299 17.3169 3.13439 17.2714 3.15376 17.1918C3.16223 17.1544 3.17952 17.0975 3.19767 17.0359C3.2153 16.9723 3.23811 16.9079 3.26318 16.8374C3.31348 16.6964 3.38021 16.5373 3.46215 16.3782C3.54288 16.2174 3.639 16.0576 3.74202 15.9075C3.94618 15.6046 4.18041 15.3511 4.35985 15.1731C4.45008 15.0846 4.52632 15.0136 4.5806 14.9661C4.63506 14.9182 4.66582 14.891 4.66582 14.891L4.86549 15.2831C4.86549 15.2831 4.83748 15.3102 4.7877 15.3575ZM7.28355 24.5683C7.28355 24.5683 7.15891 24.4715 6.97239 24.3262C6.87922 24.2531 6.77048 24.1712 6.65276 24.0708C6.53538 23.9731 6.41039 23.8691 6.28524 23.765C6.16319 23.6555 6.04132 23.5466 5.92689 23.4441C5.81193 23.344 5.70804 23.2426 5.61954 23.155C5.44166 22.9807 5.3229 22.8645 5.3229 22.8645L5.66932 22.2577C5.66932 22.2577 5.78514 22.3647 5.95904 22.5243C6.04531 22.6048 6.14695 22.6977 6.25966 22.7903C6.37185 22.8841 6.4913 22.9843 6.61058 23.0847C6.73193 23.1794 6.85329 23.2739 6.96686 23.3624C7.07871 23.4524 7.19141 23.5315 7.28597 23.6007C7.47577 23.7385 7.60231 23.8305 7.60231 23.8305L7.28355 24.5683ZM10.4849 26.6351C10.4849 26.6351 10.3525 26.5596 10.154 26.446C9.95676 26.3355 9.68796 26.1717 9.42226 26.0131C9.15881 25.8481 8.89433 25.6869 8.69916 25.5555C8.50296 25.4272 8.37226 25.3417 8.37226 25.3417L8.67115 24.5366C8.67115 24.5366 8.8008 24.6151 8.99527 24.7328C9.18819 24.8533 9.45095 25.0016 9.71198 25.1525C9.97543 25.2979 10.2337 25.4432 10.437 25.5475C10.6379 25.6539 10.7717 25.7239 10.7717 25.7239L10.4849 26.6351Z" fill="url(#paint0_linear_926_208)"/>
<path d="M14.0344 2.58288C14.2389 2.68466 14.3753 2.75266 14.3753 2.75266L14.1016 3.72116C14.1016 3.72116 13.9663 3.65977 13.7633 3.56781C13.5599 3.47812 13.2911 3.34736 13.0181 3.23554C12.8819 3.1778 12.746 3.12007 12.6186 3.06576C12.5002 3.01464 12.3915 2.97333 12.295 2.93454C11.2981 3.20519 10.2975 3.49409 9.32739 3.74968C11.0991 7.4466 13.5218 7.43565 17.5949 10.9822C21.6678 14.5287 10.7855 18.2708 10.7855 18.2708C10.7855 18.2708 23.3076 20.1702 25.6213 12.8122C27.6307 6.42196 21.0894 2.7894 19.023 2.39301C17.1996 2.04317 16.1819 1.66527 13.907 2.51966C13.9512 2.5418 13.9951 2.56371 14.0344 2.58288ZM16.4931 17.3626C16.2818 17.4228 15.9952 17.489 15.7103 17.5584C15.4246 17.6209 15.1393 17.6868 14.9245 17.7265C14.7098 17.769 14.5668 17.7973 14.5668 17.7973L14.5471 17.6339C14.5471 17.6339 14.689 17.5997 14.9017 17.5481C15.1148 17.499 15.3971 17.4212 15.6796 17.3468C15.9608 17.2651 16.2414 17.1878 16.4523 17.1182C16.6632 17.052 16.8034 17.0077 16.8034 17.0077L16.8469 17.2674C16.8469 17.2674 16.7055 17.3055 16.4931 17.3626ZM19.9055 16.0673C19.8061 16.1236 19.6885 16.1873 19.5575 16.2478C19.4278 16.3098 19.2895 16.379 19.1512 16.4424C19.0123 16.5018 18.8736 16.5609 18.7434 16.6163C18.6138 16.6741 18.4905 16.717 18.3856 16.7574C18.1758 16.8368 18.0357 16.8895 18.0357 16.8895L17.9688 16.583C17.9688 16.583 18.1059 16.5248 18.3109 16.4376C18.4134 16.3936 18.5339 16.3457 18.6603 16.2829C18.7868 16.2229 18.9217 16.1588 19.057 16.0949C19.19 16.0266 19.3212 15.9548 19.4451 15.8897C19.5685 15.827 19.6838 15.7585 19.7825 15.6973C19.98 15.5785 20.1117 15.4988 20.1117 15.4988L20.2391 15.8831C20.2391 15.8831 20.1058 15.9566 19.9055 16.0673ZM21.6201 8.22661C21.6201 8.22661 21.6454 8.26084 21.6893 8.32063C21.7318 8.37768 21.8003 8.47353 21.8751 8.58398C22.0253 8.80602 22.2186 9.11318 22.3856 9.45115C22.5548 9.78639 22.6947 10.1527 22.7764 10.4416C22.8183 10.5853 22.8471 10.709 22.8658 10.7962C22.8838 10.8836 22.8942 10.9336 22.8942 10.9336L22.4374 11.0899C22.4374 11.0899 22.4279 11.0481 22.411 10.9751C22.3935 10.9023 22.3673 10.7989 22.3284 10.6775C22.2533 10.4336 22.1247 10.1196 21.9669 9.82587C21.8118 9.53034 21.6289 9.25604 21.486 9.05728C21.4139 8.95778 21.3574 8.88178 21.3097 8.82177C21.2644 8.7638 21.2383 8.73049 21.2383 8.73049L21.6201 8.22661ZM21.2123 14.6424C21.2623 14.5956 21.332 14.526 21.4139 14.4402C21.5764 14.2676 21.7856 14.0244 21.9596 13.748C22.048 13.6113 22.1284 13.4678 22.1937 13.3265C22.2609 13.1871 22.3137 13.0502 22.3527 12.9306C22.3719 12.8706 22.3903 12.8154 22.4013 12.7693C22.4139 12.7216 22.4255 12.6846 22.4342 12.641C22.4516 12.5607 22.4615 12.5148 22.4615 12.5148L22.8765 12.683C22.8765 12.683 22.8651 12.7286 22.8456 12.808C22.8374 12.8452 22.82 12.9023 22.802 12.9637C22.7844 13.0274 22.7614 13.0917 22.7365 13.1624C22.686 13.3037 22.6193 13.4625 22.5374 13.6214C22.4566 13.7823 22.3605 13.9422 22.2577 14.0922C22.0535 14.3948 21.8193 14.6485 21.6397 14.8265C21.5494 14.9148 21.473 14.986 21.4187 15.0335C21.3645 15.0812 21.3335 15.1086 21.3335 15.1086L21.1339 14.7165C21.1339 14.7165 21.1624 14.6896 21.2123 14.6424ZM18.7163 5.43201C18.7163 5.43201 18.8408 5.52854 19.0275 5.67391C19.1206 5.74693 19.2292 5.82886 19.3473 5.92927C19.4646 6.02695 19.5896 6.13123 19.7148 6.23529C19.8367 6.34437 19.9584 6.45368 20.073 6.55592C20.1879 6.6561 20.292 6.75765 20.3805 6.84551C20.5584 7.0194 20.6768 7.13556 20.6768 7.13556L20.3305 7.74236C20.3305 7.74236 20.2149 7.63579 20.0408 7.47604C19.9546 7.39549 19.8531 7.30238 19.74 7.21018C19.628 7.11616 19.5086 7.01575 19.3893 6.91534C19.2681 6.82087 19.1467 6.72639 19.0328 6.63784C18.9212 6.54816 18.8085 6.46852 18.7139 6.3996C18.5241 6.26176 18.3975 6.1698 18.3975 6.1698L18.7163 5.43201ZM15.5148 3.36494C15.5148 3.36494 15.6472 3.4407 15.8457 3.55411C16.0431 3.66456 16.3121 3.82842 16.5776 3.98702C16.8409 4.15201 17.1055 4.31335 17.3009 4.44434C17.4967 4.57282 17.6276 4.65817 17.6276 4.65817L17.3287 5.4635C17.3287 5.4635 17.1991 5.385 17.0048 5.26702C16.8115 5.14653 16.5489 4.99843 16.2877 4.84713C16.0243 4.70244 15.7662 4.55662 15.5625 4.45188C15.3618 4.34599 15.2277 4.27547 15.2277 4.27547L15.5148 3.36494Z" fill="#177817"/>
<path d="M165.108 27.0346V2.535H169.842V13.7585C170.472 12.5004 171.566 11.5072 173.755 11.5072C177.367 11.5072 179.31 13.7585 179.31 17.8307V27.0346H174.576V19.1219C174.576 17.2679 174.138 15.9767 172.414 15.9767C170.827 15.9767 169.842 17.8638 169.842 19.0557V27.0346H165.108Z" fill="#084513"/>
<path d="M156.032 16.5394H154.5V11.805H156.032V7.36862H160.766V11.805H163.42V16.5394H160.766V27.0345H156.032V16.5394Z" fill="#084513"/>
<path d="M152.022 11.6727V27.0346H147.835V26.0745C147.206 26.6373 146.248 27.3657 144.059 27.3657C139.873 27.3657 137.793 23.4259 137.793 19.4861C137.793 15.5463 139.873 11.6064 144.059 11.6064C146.166 11.6064 147.233 12.1693 147.835 12.7983V11.6727H152.022ZM142.472 19.3536C142.472 21.0752 143.649 22.4988 145.072 22.4988C146.495 22.4988 147.671 21.0752 147.671 19.3536C147.671 17.632 146.495 16.2084 145.072 16.2084C143.649 16.2084 142.472 17.632 142.472 19.3536Z" fill="#084513"/>
<path d="M136.501 10.845C136.501 15.4801 133.738 18.2611 130.235 18.2611H127.69V27.0346H122.929V3.39578H130.235C133.738 3.39578 136.501 6.20993 136.501 10.845ZM127.69 13.1956H129.797C131.165 13.1956 131.767 12.2355 131.767 10.845C131.767 9.45447 131.001 8.46125 129.797 8.46125H127.69V13.1956Z" fill="#084513"/>
<path d="M97.0781 27.0346V11.8051H101.785V13.1956C102.387 12.4672 103.399 11.5402 105.834 11.5402C109.228 11.5402 110.787 13.6922 110.787 17.4996V27.0346H106.081V18.7246C106.081 16.8705 105.807 15.48 104.083 15.48C102.168 15.48 101.785 17.0361 101.785 18.1617V27.0346H97.0781Z" fill="#084513"/>
<path d="M86.1369 20.5455C86.1642 22.1347 87.0399 23.2603 88.408 23.2603C89.9404 23.2603 90.515 22.7637 90.7613 22.0353H94.9479C94.3733 24.2535 92.8409 27.465 88.2165 27.465C83.7836 27.465 81.5671 23.4259 81.5671 19.4861C81.5671 15.5462 84.0025 11.3416 88.408 11.3416C93.3335 11.3416 95.3584 15.3476 95.3584 19.7178C95.3584 19.9827 95.3584 20.2806 95.331 20.5455H86.1369ZM90.5698 17.2678C90.4877 16.3408 89.8036 15.1821 88.3533 15.1821C86.903 15.1821 86.2189 16.3408 86.1916 17.2678H90.5698Z" fill="#084513"/>
<path d="M71.1459 20.5455C71.1733 22.1347 72.0489 23.2603 73.4171 23.2603C74.9494 23.2603 75.5241 22.7637 75.7703 22.0353H79.957C79.3823 24.2535 77.85 27.465 73.2255 27.465C68.7926 27.465 66.5762 23.4259 66.5762 19.4861C66.5762 15.5462 69.0115 11.3416 73.4171 11.3416C78.3425 11.3416 80.3674 15.3476 80.3674 19.7178C80.3674 19.9827 80.3674 20.2806 80.3401 20.5455H71.1459ZM75.5788 17.2678C75.4967 16.3408 74.8126 15.1821 73.3623 15.1821C71.9121 15.1821 71.228 16.3408 71.2006 17.2678H75.5788Z" fill="#084513"/>
<path d="M55.9561 27.0346V11.8051H60.69V12.8645C61.2372 12.2024 62.2223 11.4078 63.7547 11.4078C64.6029 11.4078 65.0955 11.6065 65.5059 11.8382V16.1753C65.1502 16.0429 64.7124 15.8773 63.8641 15.8773C62.3591 15.8773 60.69 16.8375 60.69 19.2874V27.0346H55.9561Z" fill="#084513"/>
<path d="M48.3385 11.3086C47.3534 9.78561 45.8484 8.79238 44.1245 8.79238C41.1693 8.79238 38.7886 11.6727 38.7886 15.2484C38.7886 18.824 41.1693 21.7043 44.1245 21.7043C46.1494 21.7043 47.9007 20.3469 48.8037 18.3274H44.535V13.9241H54.0301C54.0575 14.3545 54.0849 14.818 54.0849 15.2815C54.0849 22.0023 49.5972 27.432 44.0424 27.432C38.4876 27.432 34 22.0023 34 15.2815C34 8.56063 38.4876 3.13098 44.0424 3.13098C47.3534 3.13098 50.3087 5.08433 52.1694 8.13023L48.3385 11.3086Z" fill="#084513"/>
<defs>
<linearGradient id="paint0_linear_926_208" x1="8.33617" y1="27.5351" x2="8.33617" y2="14.2521" gradientUnits="userSpaceOnUse">
<stop stop-color="#999999"/>
<stop offset="1" stop-color="#7C7C7C"/>
</linearGradient>
</defs>
</svg>
