<svg xmlns="http://www.w3.org/2000/svg" width="26" height="25" fill="none" fill-rule="evenodd" xmlns:v="https://vecta.io/nano"><g fill="#2a2941"><path d="M15.777 13.988l5.012-2.158 2.326 5.248-5.297 2.235-2.041-5.325z"/><path d="M21.659 9.765l-.87 2.065 2.341 5.279.735-2.158-2.206-5.185z"/><path d="M16.422 13.74l4.367-1.91.87-2.127-4.727 2.003-.51 2.034z" stroke="#2a2941" stroke-width="1.859" stroke-linejoin="round"/><path d="M10.345 22.03c.615 2.282 1.471 3.462 3.946 2.484l-1.47-3.602-2.476 1.118zm3.631-20.12a3.81 3.81 0 0 0-1.216.497l.18.885a3.28 3.28 0 0 0-.795.916l-.855-.109c-.195.419-.315.869-.375 1.32l.78.435c-.015.419.06.838.195 1.242l-.6.637a4.36 4.36 0 0 0 .735 1.149l.795-.373a3.07 3.07 0 0 0 1.05.637l.105.916a4.19 4.19 0 0 0 1.32.109l.21-.885a3.31 3.31 0 0 0 1.11-.45l.735.481a3.68 3.68 0 0 0 .87-1.009l-.525-.761c.18-.373.3-.776.33-1.195l.825-.295c0-.466-.075-.931-.225-1.366l-.87-.031a3.46 3.46 0 0 0-.69-1.04l.27-.869a4.22 4.22 0 0 0-1.155-.699l-.555.699a3.13 3.13 0 0 0-1.2-.093l-.45-.745zm0 1.878c.57-.217 1.185-.186 1.741.062s.99.73 1.201 1.304c.12.279.18.59.18.9s-.06.621-.165.9c-.12.295-.285.543-.495.776a2.44 2.44 0 0 1-.735.512 2.26 2.26 0 0 1-1.741-.062c-.555-.264-.99-.73-1.2-1.304-.12-.295-.18-.605-.165-.916a2.43 2.43 0 0 1 .18-.916 2.4 2.4 0 0 1 .51-.761c.225-.217.48-.388.765-.497h-.075zm3.586 13.367a3.02 3.02 0 0 0-1.005.419l.135.73c-.27.217-.495.466-.66.761l-.735-.078c-.165.342-.27.699-.315 1.071l.63.341c-.015.342.045.683.15.994l-.495.528a3.86 3.86 0 0 0 .615.916l.66-.31a2.65 2.65 0 0 0 .855.497l.075.761a2.85 2.85 0 0 0 1.081.078l.18-.714a2.32 2.32 0 0 0 .9-.372l.615.388c.285-.233.54-.497.735-.823l-.435-.59c.15-.295.255-.637.285-.963l.675-.248c0-.372-.045-.745-.165-1.102h-.735a3.1 3.1 0 0 0-.555-.838l.225-.699a3.65 3.65 0 0 0-.945-.559l-.45.559c-.315-.093-.645-.109-.975-.062l-.39-.621.045-.062zm0 1.537c.465-.186.975-.186 1.426.015a1.94 1.94 0 0 1 1.005 1.056 2.05 2.05 0 0 1 .135.745c0 .248-.06.497-.15.73s-.24.45-.405.621c-.18.171-.375.31-.6.404a1.82 1.82 0 0 1-1.426-.016c-.451-.202-.81-.574-1.005-1.056a2.05 2.05 0 0 1-.135-.745c0-.248.06-.512.15-.745s.24-.45.42-.621a1.4 1.4 0 0 1 .585-.388z"/><path d="M9.654 17.605L9.699 7.25l5.237-.062 2.326 2.437-.075 7.809-7.533.171z"/><path d="M14.876 9.517V6.877l2.551 2.67-2.551-.031z" stroke="#2a2941" stroke-width="1.859" stroke-linejoin="round"/><path d="M6.653 7.623C.651 9.905 1.311 19.065 8.664 20.586c0 0 .96 1.32 1.531 1.475s1.861-.543 1.861-.543L6.653 7.623z"/></g><path d="M16.602 12.7l5.012-2.158 2.326 5.247-5.297 2.236-2.041-5.325z" fill="#32edbb"/><path d="M16.482 12.404a.29.29 0 0 0-.165.186c-.03.078-.03.171 0 .248l2.041 5.341c.015.046.03.078.06.109s.06.062.105.078.075.031.12.031.09-.015.12-.031l5.297-2.236c.075-.031.135-.093.18-.171.03-.078.03-.171 0-.264l-2.326-5.247c-.03-.078-.09-.14-.165-.171a.32.32 0 0 0-.24 0l-5.027 2.158v-.031zm.525.466l4.427-1.925 2.071 4.657-4.697 1.987-1.816-4.735.015.015z" fill="#2a2941"/><path d="M22.469 8.477l-.855 2.065 2.341 5.279.735-2.158-2.221-5.185z" fill="#fec34e"/><path d="M22.769 8.321c-.03-.062-.06-.109-.12-.14-.045-.031-.105-.047-.165-.047a.39.39 0 0 0-.18.047.53.53 0 0 0-.12.14l-.855 2.065c-.015.047-.03.093-.03.14s.015.093.03.14l2.341 5.278c.03.062.075.109.12.14s.105.046.18.046c.06 0 .12-.031.18-.062a.42.42 0 0 0 .12-.155l.78-2.158c.015-.047.03-.078.03-.124a.3.3 0 0 0-.03-.124l-2.281-5.185zm-.285.947l1.906 4.394-.465 1.304-1.966-4.44.525-1.258z" fill="#2a2941"/><path d="M17.247 12.451l4.367-1.91.855-2.127-4.712 2.003-.51 2.034z" fill="#a694fe"/><path d="M16.977 12.358c-.015.062-.015.124 0 .171.015.062.045.109.09.155s.105.062.15.078a.29.29 0 0 0 .165-.015l4.367-1.91c.03-.015.075-.047.105-.062s.045-.062.06-.109l.87-2.127c.03-.062.03-.124.015-.186s-.045-.124-.09-.171-.105-.078-.165-.093-.12 0-.18.016l-4.712 2.003c-.045.016-.09.047-.12.078a.34.34 0 0 0-.075.124l-.48 2.049zm.78-.466l.315-1.242 3.871-1.646-.51 1.289-3.691 1.599h.015z" fill="#2a2941"/><path d="M11.65 21.301c.54 2.034 1.32 3.043 3.481 2.189l-1.275-3.183-2.206.994z" fill="#a694fe"/><path d="M14.201 19.344l-3.376 1.521.165.59c.405 1.49.975 2.484 1.891 2.857.825.264 1.726.202 2.506-.186l.66-.264-1.846-4.518zM11.65 21.3c.54 2.034 1.32 3.043 3.481 2.189l-1.275-3.183-2.206.994z" fill="#2a2941"/><path d="M14.561.808c-.435.093-.84.264-1.215.497l.18.9c-.315.248-.585.559-.795.916l-.855-.109c-.195.419-.315.854-.375 1.32l.78.435a3.18 3.18 0 0 0 .21 1.242l-.615.652a4.78 4.78 0 0 0 .735 1.149l.795-.357a3.16 3.16 0 0 0 1.05.621l.105.916a4.19 4.19 0 0 0 1.32.109l.21-.885c.39-.078.765-.233 1.11-.45l.735.481a3.69 3.69 0 0 0 .87-1.009l-.525-.761c.18-.373.3-.776.33-1.195l.825-.295c0-.466-.075-.932-.225-1.366l-.87-.031c-.165-.388-.405-.745-.69-1.04l.27-.869c-.345-.295-.735-.528-1.155-.699l-.555.699c-.39-.109-.795-.14-1.185-.093l-.48-.761.015-.016zm0 1.878c.57-.217 1.185-.186 1.741.062s.99.73 1.2 1.304c.12.279.18.59.18.9s-.06.621-.165.9c-.12.295-.285.543-.495.776-.21.217-.465.388-.735.512-.57.217-1.185.186-1.741-.062s-.99-.73-1.2-1.304c-.12-.279-.18-.59-.18-.9a2.74 2.74 0 0 1 .165-.916c.12-.295.285-.543.495-.776a2.08 2.08 0 0 1 .735-.497z" fill="#fec34e"/><path d="M15.146.419L14.891 0l-.465.109c-.51.109-.99.311-1.441.59l-.42.264.195.978a5.12 5.12 0 0 0-.375.435l-.945-.109-.21.45c-.225.481-.36.994-.42 1.521l-.045.481.84.466a4.23 4.23 0 0 0 .09.605l-.66.699.21.435a4.99 4.99 0 0 0 .885 1.335l.33.357.825-.342.51.31.12.978.45.109a4.35 4.35 0 0 0 1.546.124l.495-.047.225-.963.51-.202.81.528.39-.311c.405-.342.75-.745 1.035-1.195l.255-.419-.57-.807a3.59 3.59 0 0 0 .165-.574l.885-.326v-.497c0-.543-.09-1.087-.255-1.599l-.15-.466-.945-.031-.345-.512.3-.932-.36-.311a5.05 5.05 0 0 0-1.351-.823l-.45-.186-.6.761c-.195-.031-.375-.047-.57-.047l-.255-.435.015.016zm-.585.388a3.81 3.81 0 0 0-1.215.497l.18.9c-.315.248-.585.559-.795.916l-.855-.109c-.195.419-.315.854-.375 1.32l.78.435a3.18 3.18 0 0 0 .21 1.242l-.615.652c.195.419.435.807.735 1.149l.795-.357a3.16 3.16 0 0 0 1.05.621l.105.916a4.19 4.19 0 0 0 1.321.109l.21-.885c.39-.078.765-.233 1.11-.45l.735.481c.345-.279.645-.621.87-1.009l-.525-.761c.18-.373.3-.776.33-1.195l.825-.295a4.2 4.2 0 0 0-.225-1.366l-.87-.031a3.46 3.46 0 0 0-.69-1.04l.27-.869c-.345-.295-.735-.528-1.155-.699l-.555.699c-.39-.109-.795-.14-1.185-.093l-.48-.761.015-.016zm0 1.879c.57-.217 1.185-.186 1.741.062s.99.73 1.201 1.304c.12.279.18.59.18.9s-.06.621-.165.9c-.12.295-.285.543-.495.776a2.44 2.44 0 0 1-.735.512c-.57.217-1.185.186-1.741-.062s-.99-.73-1.2-1.304c-.12-.279-.18-.59-.18-.9a2.74 2.74 0 0 1 .165-.916c.12-.295.285-.543.495-.776a2.08 2.08 0 0 1 .735-.497zm.255.652a1.54 1.54 0 0 1 1.23.047 1.63 1.63 0 0 1 .84.932 1.56 1.56 0 0 1 .135.637c0 .217-.03.435-.12.636a1.58 1.58 0 0 1-.345.543 1.52 1.52 0 0 1-.525.357 1.54 1.54 0 0 1-1.23-.047 1.63 1.63 0 0 1-.84-.932c-.075-.202-.12-.419-.135-.637a1.84 1.84 0 0 1 .12-.637 1.58 1.58 0 0 1 .345-.543c.15-.14.33-.264.525-.357z" fill="#2a2941"/><path d="M18.298 16.115c-.36.078-.705.217-1.005.419l.135.73c-.27.202-.495.466-.66.761l-.735-.078c-.15.341-.255.699-.3 1.071l.63.342c-.015.341.045.683.15.994l-.495.512a3.14 3.14 0 0 0 .615.916l.645-.295c.255.217.54.388.855.497l.09.761c.345.093.72.109 1.081.078l.18-.714a2.49 2.49 0 0 0 .915-.373l.6.388a3.44 3.44 0 0 0 .735-.823l-.42-.59c.15-.311.24-.636.285-.962l.675-.248c0-.373-.06-.745-.165-1.102h-.735c-.135-.311-.33-.59-.555-.838l.225-.699c-.285-.233-.6-.419-.945-.559l-.45.559c-.315-.093-.645-.109-.975-.078l-.39-.621.015-.047zm0 1.537c.465-.186.975-.186 1.426.031a1.92 1.92 0 0 1 .99 1.056c.09.233.135.481.135.745 0 .248-.045.497-.15.73-.09.233-.24.45-.405.621-.18.171-.375.31-.615.404-.465.186-.975.186-1.425-.031a1.92 1.92 0 0 1-.99-1.056c-.09-.233-.135-.481-.135-.745 0-.248.045-.512.15-.745.09-.233.24-.45.42-.621a1.82 1.82 0 0 1 .6-.388z" fill="#4c5efd"/><path d="M18.883 15.727l-.255-.419-.465.093c-.42.109-.81.28-1.185.497l-.42.264.15.807c-.075.078-.15.171-.225.264l-.795-.078-.21.435c-.195.404-.33.838-.375 1.304l-.06.497.735.388.045.357-.555.575.21.45c.18.419.435.792.735 1.118l.33.357.735-.341.3.186.09.807.465.124a3.69 3.69 0 0 0 1.305.093l.48-.047.195-.761.33-.124.675.435.39-.31a4.23 4.23 0 0 0 .885-.994l.255-.419-.48-.652c.045-.109.075-.217.09-.341l.735-.279v-.497c0-.45-.06-.9-.21-1.335l-.15-.466h-.795l-.195-.295.255-.761-.375-.311c-.345-.279-.735-.512-1.14-.667l-.45-.171-.51.621h-.36l-.165-.279-.015-.124zm-.585.388a2.9 2.9 0 0 0-1.005.419l.135.73c-.27.202-.495.466-.66.761l-.735-.078c-.15.342-.255.699-.3 1.071l.63.342c-.015.341.045.683.15.994l-.495.512c.15.342.36.652.615.916l.645-.295a2.65 2.65 0 0 0 .855.497l.09.761c.345.093.72.109 1.081.078l.18-.714a2.49 2.49 0 0 0 .915-.373l.6.388c.285-.233.54-.512.735-.823l-.42-.59c.15-.311.24-.637.285-.963l.675-.248c0-.373-.06-.745-.165-1.102h-.735c-.135-.31-.33-.59-.555-.838l.225-.699a3.65 3.65 0 0 0-.945-.559l-.45.559c-.315-.093-.645-.109-.975-.078l-.39-.621.015-.047zm0 1.521c.465-.186.975-.186 1.426.031a1.92 1.92 0 0 1 .99 1.056c.09.233.135.481.135.745 0 .248-.045.497-.15.73-.09.233-.24.45-.405.621-.18.171-.375.311-.615.404-.465.186-.975.186-1.425-.031a1.92 1.92 0 0 1-.99-1.056c-.09-.233-.135-.481-.135-.745 0-.248.045-.512.15-.745.09-.233.24-.45.42-.621s.39-.311.6-.388zm.255.668c.285-.124.615-.109.9.016s.51.373.63.668c.06.14.09.31.09.466s-.03.311-.09.466c-.06.14-.15.279-.255.388s-.24.202-.39.248c-.285.124-.615.109-.9-.016s-.51-.372-.63-.668c-.06-.14-.09-.311-.09-.466a1.28 1.28 0 0 1 .09-.466c.06-.14.15-.279.255-.388.12-.093.255-.186.39-.248z" fill="#2a2941"/><path d="M10.48 16.302l.03-10.371 5.237-.062 2.326 2.437-.075 7.809-7.518.186z" fill="#fff"/><g fill="#2a2941"><path d="M9.879 5.294l-.045 11.675 8.778-.217.075-8.71-2.686-2.826-6.122.078zm.585 11.007l.045-10.371 5.237-.062 2.326 2.437-.075 7.809-7.533.186z"/><path d="M15.372 8.213c0 .047 0 .078.015.124s.045.078.06.109c.03.031.06.062.105.078s.075.031.12.031l2.566.047a.39.39 0 0 0 .18-.047c.06-.031.09-.093.12-.14.03-.062.03-.124.015-.186s-.045-.124-.09-.171l-2.551-2.686c-.045-.047-.105-.078-.165-.093s-.12 0-.18.016c-.06.031-.105.062-.135.124a.34.34 0 0 0-.06.186v2.608zm.645-.326V6.366l1.471 1.521h-1.471z"/></g><path d="M7.974 6.163C1.972 8.446 2.632 17.605 9.985 19.127c0 0 .96 1.32 1.531 1.475s1.861-.543 1.861-.543L7.974 6.132v.031z" fill="#fec34e"/><path d="M14.696 20.602L8.559 4.782l-.96.373c-.915.342-1.756.869-2.476 1.553s-1.29 1.506-1.681 2.437a7.75 7.75 0 0 0-.615 2.919c-.015 1.009.18 2.003.555 2.934.51 1.304 1.32 2.453 2.371 3.353a8.16 8.16 0 0 0 3.631 1.801 7.94 7.94 0 0 0 .84.916 2.63 2.63 0 0 0 1.005.621c.39.078.795.062 1.185-.047a9.66 9.66 0 0 0 1.441-.574l.84-.466zM7.974 6.163C1.972 8.446 2.632 17.605 9.985 19.127c0 0 .96 1.32 1.531 1.475s1.861-.543 1.861-.543L7.974 6.132v.031zM2.692 8.88L.966 8.259c-.045-.016-.075-.016-.12-.016s-.075.016-.12.031-.075.047-.105.078-.045.062-.06.109-.015.078-.015.124.015.078.03.124c.015.031.045.078.075.093a.24.24 0 0 0 .105.062l1.726.621c.075.031.165.031.24-.016.075-.031.135-.109.165-.186a.29.29 0 0 0-.015-.248c-.03-.062-.105-.124-.18-.155zm-.84 7.235l-1.666.761c-.075.031-.135.109-.165.186a.29.29 0 0 0 .015.248.47.47 0 0 0 .075.109.24.24 0 0 0 .105.062.32.32 0 0 0 .12.015c.045 0 .075-.015.12-.031l1.666-.761a.43.43 0 0 0 .12-.062c.03-.031.06-.062.075-.109s.03-.093.03-.14-.015-.093-.03-.14-.045-.078-.075-.109-.075-.047-.12-.062-.09-.015-.135-.015l-.135.046zm5.176 4.999l-.735 1.739c-.015.047-.03.078-.03.124s0 .093.015.124c.015.047.045.078.06.109.03.031.06.062.105.078s.075.031.12.031.09 0 .12-.015c.045-.015.075-.047.105-.062.03-.031.06-.062.075-.109l.735-1.739c.03-.078.03-.171 0-.248a.39.39 0 0 0-.165-.186c-.045-.015-.075-.031-.12-.031s-.09 0-.12.016c-.045.015-.075.046-.105.062-.015.031-.045.062-.06.109zM6.503 2.841l.735 1.739c.03.078.09.14.165.171a.32.32 0 0 0 .24 0c.075-.031.135-.093.165-.171s.03-.171 0-.248l-.735-1.739c-.03-.078-.105-.124-.18-.155s-.15-.031-.225 0-.12.093-.15.171c-.045.078-.045.155-.015.233z" fill="#2a2941"/></svg>