<svg xmlns="http://www.w3.org/2000/svg" width="26" height="26" fill="none" xmlns:v="https://vecta.io/nano"><g fill="#2a2941"><path d="M24.721 10.567l-7.318-7.529-1.919 2.466 1.355 1.409-.47-.308-4.91 2.069-1.731 2.003.075-.881-.245.066c-1.11.242-2.201.683-3.217 1.321l-2.408 1.475-.245 1.893.188-3.368-2.841-.154-.64 11.382 2.86.176.075-1.211.959.22c-.169.595.075 1.255.583 1.497.527.264 1.129-.044 1.355-.66l.132-.396.245.066-.395 1.145c-.226.638.038 1.365.564 1.607.546.264 1.166-.044 1.373-.66l.564-1.607.376.088-.414 1.189c-.226.639.038 1.365.564 1.607.546.264 1.166-.044 1.373-.66l.583-1.651.263.066-.263.727c-.226.638.038 1.365.564 1.607.546.264 1.166-.044 1.373-.66l.414-1.189.245-.528 2.446.881c.546.198 1.166-.132 1.354-.771.188-.66-.113-1.387-.696-1.585l-2.314-.837.019-.088 3.236 1.167c.546.198 1.166-.132 1.355-.771.188-.66-.075-1.563-.659-1.761l-3.255-1.123.056-.198 3.198 1.101c.546.198 1.223-.242 1.411-.881.188-.661-.113-1.387-.696-1.585l-3.217-1.167 3.443 1.035c.564.198 1.148-.176 1.317-.815.169-.661-.151-1.343-.696-1.541l-3.311-1.431-4.271-1.915 7.902 2.554s.734-.484.903-1.123c.056-.176.075-.352.094-.528l1.336 1.365 1.976-2.598z"/><path d="M12.191 26c-.188 0-.376-.044-.546-.132-.339-.154-.583-.462-.734-.814-.339.749-1.129 1.079-1.806.749-.414-.198-.715-.617-.828-1.101-.151.22-.339.374-.564.484-.357.176-.753.176-1.091 0-.357-.176-.621-.484-.771-.903-.094-.264-.132-.55-.094-.836-.339.154-.696.132-1.035-.022-.546-.264-.884-.903-.865-1.563l-.188-.044-.056 1.145L0 22.742l.696-12.24 3.593.198-.075 1.233 1.957-1.211c1.035-.638 2.164-1.101 3.311-1.343l.734-.176-.019.264 1.053-1.211 4.515-1.893-.809-.837 2.408-3.104 7.883 8.102-2.427 3.148-1.148-1.189c-.263.705-.941 1.167-1.035 1.233l-.132.088h-.019a1.5 1.5 0 0 1 .621.704 1.87 1.87 0 0 1 .113 1.277c-.15.572-.527.969-.997 1.123.019.044.038.066.056.11.169.418.207.881.075 1.299a1.76 1.76 0 0 1-.997 1.145c.038.066.094.154.132.242a2.29 2.29 0 0 1 .113 1.497c-.226.749-.903 1.211-1.58 1.101.075.33.075.682-.019 1.013-.245.859-1.072 1.321-1.825 1.057l-2.164-.77-.094.176-.414 1.167c-.207.66-.752 1.057-1.317 1.057zm-1.204-3.434l1.016.22-.433 1.211c-.15.396.019.881.376 1.035.339.176.753-.022.884-.44l.433-1.233.395-.837 2.747.991c.376.132.771-.088.884-.484.056-.198.038-.418-.038-.616s-.226-.33-.414-.396l-2.69-.969.263-.925 3.593 1.299c.376.132.771-.088.884-.484a1.22 1.22 0 0 0-.056-.815c-.056-.11-.151-.308-.339-.374l-3.612-1.255.282-1.057 3.537 1.233c.357.132.828-.176.941-.616.056-.198.038-.418-.038-.616-.094-.198-.226-.33-.414-.396l-3.217-1.167.207-.837 3.443 1.035c.376.132.753-.11.865-.528a.88.88 0 0 0-.056-.616c-.094-.198-.226-.33-.395-.396h-.019l-3.311-1.431-4.289-1.915.226-.837 7.732 2.51c.207-.176.527-.484.621-.793.038-.132.056-.264.075-.44l.094-.815 1.58 1.629 1.411-1.827-6.754-6.935-1.411 1.805 3.857 3.963-3.537-2.378-4.666 1.959L9.237 11.8l.132-1.497c-.997.242-1.957.661-2.86 1.211l-2.239 1.365-.226 1.673-.753-.088.169-2.928-2.107-.11-.583 10.501 2.107.132.075-1.277 1.806.396-.132.484c-.113.374.056.793.376.947a.52.52 0 0 0 .508 0c.169-.088.282-.22.357-.418l.263-.726.997.22-.583 1.629a.87.87 0 0 0 0 .616c.075.198.207.352.376.44a.56.56 0 0 0 .527 0c.169-.088.301-.242.376-.44l.696-1.937 1.129.264-.602 1.673c-.15.396.019.881.376 1.035.339.176.753-.022.884-.44l.677-1.959z"/></g><path d="M20.902 11.69l-3.311-1.431-4.271-1.915-3.424 2.202 1.467-3.192-1.072.066c-1.11.242-2.201.682-3.217 1.321l-2.408 1.475-1.129 8.586 10.799 2.422.245-.528 2.446.881c.527.198 1.11-.088 1.336-.682.245-.682-.075-1.453-.658-1.651l-2.314-.837.019-.088 3.236 1.167c.546.198 1.166-.132 1.355-.77.188-.661-.075-1.563-.659-1.761l-3.255-1.123.056-.198 3.198 1.101c.546.198 1.223-.242 1.411-.881.188-.66-.113-1.387-.696-1.585l-3.217-1.167 3.443 1.035c.564.198 1.148-.176 1.317-.814.188-.726-.132-1.431-.696-1.629z" fill="#fff"/><path d="M17.365 22.037c-.15 0-.301-.022-.433-.088l-2.163-.771-.226.484-11.42-2.554 1.223-9.224L6.923 8.3c1.035-.638 2.164-1.101 3.311-1.343h.056l1.731-.088-1.185 2.576 2.446-1.563 4.44 1.981 3.311 1.431c.357.132.658.418.828.815a1.87 1.87 0 0 1 .113 1.277c-.113.418-.357.771-.696.991a.76.76 0 0 1-.301.132c.019.044.038.066.056.11.169.418.207.88.075 1.299a1.76 1.76 0 0 1-.997 1.145c.038.066.094.154.132.242a2.29 2.29 0 0 1 .113 1.497c-.226.771-.903 1.211-1.58 1.101.094.374.075.771-.056 1.123-.226.638-.771 1.013-1.355 1.013zm-2.954-1.893l2.747.991c.358.132.734-.066.866-.44.075-.22.075-.44-.019-.638a.7.7 0 0 0-.414-.418l-2.69-.969.263-.925 3.593 1.299c.376.132.771-.088.884-.484a1.22 1.22 0 0 0-.056-.815c-.056-.11-.15-.308-.339-.374l-3.612-1.255.282-1.057 3.537 1.233c.357.132.828-.176.941-.616.056-.198.038-.418-.038-.617s-.226-.33-.414-.396l-3.217-1.167.207-.837 3.443 1.035c.188.066.376.044.546-.044a.79.79 0 0 0 .339-.462.88.88 0 0 0-.056-.616c-.094-.198-.226-.33-.395-.396h-.019l-3.311-1.431-4.12-1.849-4.383 2.818 1.768-3.831-.376.022a10.29 10.29 0 0 0-3.085 1.255l-2.239 1.365-1.054 7.948 10.178 2.268.245-.594z" fill="#2a2941"/><path d="M17.101 4.183l-5.023 1.453-2.784 3.963c-.865 1.277-.621 2.862.922 1.673l3.085-2.906 7.601 3.346s1.035-1.277 1.204-1.915c.282-.991.019-2.246.019-2.246l-5.023-3.368z" fill="#fff"/><path d="M21.015 12.219L13.395 8.85l-2.954 2.774c-1.035.815-1.562.462-1.768.198-.414-.528-.282-1.585.339-2.488l2.86-4.095 5.305-1.541 5.305 3.544.038.176c.019.066.282 1.387-.038 2.488-.207.726-1.185 1.937-1.298 2.091l-.169.22zM12.285 6.01L9.576 9.863c-.433.638-.47 1.211-.376 1.343.019.044.263.088.79-.308l3.236-3.06 7.563 3.324c.376-.484.865-1.189.96-1.541.188-.66.094-1.475.056-1.827l-4.76-3.192-4.76 1.409z" fill="#2a2941"/><path d="M7.506 22.367c-.546-.264-.79-.991-.564-1.607l1.129-3.192c.226-.638.847-.925 1.373-.661.546.264.79.991.564 1.607L8.88 21.707c-.207.639-.828.925-1.373.66z" fill="#fff"/><path d="M7.92 22.918c-.188 0-.376-.044-.546-.132-.357-.176-.621-.484-.771-.903s-.151-.881 0-1.277l1.129-3.192c.151-.418.414-.727.771-.903s.753-.176 1.091 0c.357.176.621.484.771.903s.151.881 0 1.277l-1.129 3.192c-.226.639-.771 1.035-1.317 1.035zm-.263-.947c.339.176.753-.022.884-.44l1.129-3.192a.87.87 0 0 0 0-.616c-.075-.198-.207-.352-.376-.44a.56.56 0 0 0-.527 0c-.169.088-.301.242-.376.44l-1.129 3.192a.87.87 0 0 0 0 .616.84.84 0 0 0 .395.44z" fill="#2a2941"/><path d="M9.99 22.984c-.546-.264-.79-.991-.564-1.607l1.129-3.192c.226-.638.847-.925 1.373-.66.546.264.79.991.564 1.607l-1.129 3.192c-.207.617-.828.925-1.373.661z" fill="#fff"/><path d="M10.404 23.512c-.188 0-.376-.044-.546-.132-.357-.176-.621-.484-.771-.903s-.151-.88 0-1.277l1.129-3.192c.15-.418.414-.727.771-.903s.753-.176 1.091 0c.358.176.621.484.772.903s.15.881 0 1.277l-1.129 3.192c-.151.418-.414.727-.771.903-.169.088-.357.132-.545.132zm1.129-5.68c-.094 0-.169.022-.263.066-.169.088-.301.242-.376.44l-1.129 3.192a.87.87 0 0 0 0 .617c.075.198.207.352.376.44a.56.56 0 0 0 .527 0c.169-.088.301-.242.376-.44l1.129-3.192a.87.87 0 0 0 0-.616c-.075-.198-.207-.352-.376-.44a.53.53 0 0 0-.263-.066z" fill="#2a2941"/><path d="M12.548 23.05c-.546-.264-.79-.991-.564-1.607l.658-1.849c.226-.639.847-.925 1.373-.66.546.264.79.991.564 1.607l-.659 1.849c-.226.616-.847.925-1.373.661z" fill="#fff"/><path d="M12.944 23.578c-.188 0-.376-.044-.546-.132-.734-.352-1.072-1.343-.771-2.202l.659-1.849c.301-.859 1.148-1.255 1.881-.903.357.176.621.484.771.903a1.86 1.86 0 0 1 0 1.277l-.658 1.849c-.15.418-.414.727-.771.903a1.09 1.09 0 0 1-.564.154zm.659-4.315c-.264 0-.527.176-.64.484l-.659 1.849c-.151.396.019.88.376 1.035a.56.56 0 0 0 .527 0c.169-.088.301-.242.376-.44l.659-1.849a.87.87 0 0 0 0-.616c-.075-.198-.207-.352-.376-.44-.094-.022-.169-.022-.263-.022z" fill="#2a2941"/><path d="M5.606 20.607c-.527-.264-.771-.969-.564-1.585l.32-.881c.226-.616.828-.903 1.355-.66.527.264.771.969.564 1.585l-.32.881c-.226.616-.828.925-1.355.66z" fill="#fff"/><path d="M6.001 21.135c-.188 0-.357-.044-.546-.132-.715-.352-1.054-1.321-.771-2.158l.32-.881c.301-.837 1.129-1.233 1.844-.903.339.176.621.484.771.903a1.8 1.8 0 0 1 0 1.255l-.32.881c-.15.396-.414.726-.771.903a1.11 1.11 0 0 1-.527.132zm.301-3.28c-.263 0-.508.176-.602.484l-.32.881c-.132.396.019.837.357 1.013a.52.52 0 0 0 .508 0 .73.73 0 0 0 .357-.418l.32-.881a.81.81 0 0 0 0-.594.73.73 0 0 0-.357-.418c-.094-.066-.169-.066-.263-.066z" fill="#2a2941"/><path d="M3.988 20.1l.621-11.382-2.841-.154-.64 11.36 2.86.176z" fill="#a694fe"/><path d="M4.346 20.563l-3.612-.22.677-12.24 3.593.198-.658 12.263zm-2.822-1.057l2.107.132.583-10.501-2.088-.11-.602 10.479z" fill="#2a2941"/><path d="M23.554 10.634l-7.337-7.551L18.155.617l7.318 7.529-1.919 2.488z" fill="#32edbb"/><path d="M23.573 11.25L15.69 3.126 18.117 0 26 8.102l-2.427 3.148zm-6.81-8.19l6.754 6.957 1.411-1.827-6.754-6.935-1.411 1.805z" fill="#2a2941"/></svg>