<svg xmlns="http://www.w3.org/2000/svg" width="26" height="31" fill="none" fill-rule="evenodd" xmlns:v="https://vecta.io/nano"><path d="M6.124 20.346l-3.927 1.608 3.71 8.385 3.962-1.626-3.746-8.368zm5.169-5.818l-3.908 1.66L12.5 27.722l3.944-1.677-5.151-11.517zm4.719-6.81l-3.854 1.694 6.916 15.641L23 23.341 16.012 7.718zM5.8 6.537C3.062 10.421 0 15.025 0 15.025l2.504 1.574s4.395-6.93 5.8-8.693l2.125 1.129V2.276L3.836 5.407 5.8 6.537z" fill="#2a2941"/><path d="M7.475 16.993L3.62 18.601l3.638 8.402 3.854-1.643-3.638-8.368z" fill="#fec34e"/><path d="M12.59 25.891L8.069 15.589l-5.854 2.464L6.7 28.372l5.89-2.481zm-5.115-8.898L3.62 18.601l3.638 8.402 3.854-1.643-3.638-8.368z" fill="#2a2941"/><path d="M12.536 11.157l-3.854 1.66 5.025 11.551 3.854-1.677-5.025-11.534z" fill="#31cea8"/><path d="M19.02 23.204l-5.908-13.45-5.8 2.515 5.854 13.485 5.854-2.55zm-6.484-12.047l-3.854 1.66 5.025 11.551 3.854-1.677-5.025-11.534z" fill="#2a2941"/><path d="M17.183 4.364l-3.818 1.694 6.808 15.675 3.855-1.728-6.844-15.606v-.034z" fill="#4c5efd"/><path d="M25.45 20.517L17.723 2.943l-5.8 2.584 7.655 17.591 5.872-2.601zM17.165 4.363l-3.818 1.694 6.826 15.675 3.855-1.728-6.844-15.606-.018-.034z" fill="#2a2941"/><path d="M6.106 4.86C3.116 9.292.252 13.177.252 13.177l2.72 1.78s4.323-6.537 5.854-8.539l2.305 1.266V0L3.963 3.594 6.106 4.86z" fill="#7772ee"/><path d="M6.106 4.86C3.116 9.292.252 13.177.252 13.177l2.72 1.78s4.323-6.537 5.854-8.539l2.305 1.266V0L3.963 3.594 6.106 4.86zm.648.394l.432-.616-1.675-.975 4.881-2.464v5.219l-1.747-.924-.414.53c-1.243 1.626-4.341 6.229-5.457 7.94l-1.441-.924 5.421-7.803v.017z" fill="#2a2941"/></svg>