<svg xmlns="http://www.w3.org/2000/svg" width="32" height="38" fill="none" xmlns:v="https://vecta.io/nano"><path d="M15.06 36.536c-1.644.136-3.298.162-4.941-.016-1.592-.172-3.212-.513-4.694-1.296a9.61 9.61 0 0 1-1.042-.645c-.332-.234-.662-.482-.962-.777-.577-.567-1.063-1.288-1.391-2.118-.347-.877-.516-1.849-.554-2.825-.036-.934.056-1.87.445-2.682.735-1.538 2.184-2.281 3.486-2.751 1.544-.557 3.153-.808 4.748-.993l3.865-.324 1.71-.106 1.359-.038 2.452-.128c1.633-.122 3.269-.302 4.883-.646.668-.142 1.329-.303 1.975-.568a10.95 10.95 0 0 0 2.169-1.192c1.295-.916 2.528-2.218 3.099-4.004.29-.909.399-1.936.298-2.909-.096-.925-.417-1.785-.902-2.484-.638-.92-1.503-1.511-2.388-1.961-1.464-.746-3.065-1.074-4.634-1.184a16.9 16.9 0 0 0-2.973.049l-4.029.546-4.922.694-2.446.338-2.452.238c-.812.044-1.628.053-2.439-.022-.785-.072-1.584-.222-2.323-.577-.634-.304-1.233-.79-1.596-1.535.348.897 1.017 1.486 1.72 1.877.745.414 1.557.632 2.359.777 1.662.3 3.352.294 5.027.224l1.263-.068 1.257-.15.952-.132 3.968-.58 3.878-.518c1.202-.11 2.417-.101 3.615.06.818.11 1.636.291 2.428.578.601.217 1.201.488 1.755.858.784.523 1.512 1.252 1.842 2.328.276.899.232 1.966-.007 2.87-.23.867-.671 1.623-1.19 2.249-.542.654-1.176 1.181-1.837 1.619-.711.471-1.465.848-2.239 1.115-.293.101-.591.167-.889.241l-1.248.258-2.514.348-4.794.281-1.631.088-3.393.249c-1.677.156-3.362.368-5.007.826-.779.217-1.553.49-2.29.878-.719.378-1.415.87-1.985 1.549-.556.661-.971 1.491-1.171 2.427C.512 27.887.542 28.99.68 30.022c.131.976.402 1.929.82 2.766a7.47 7.47 0 0 0 1.58 2.116c1.29 1.208 2.912 1.725 4.48 1.986 1.674.279 3.382.252 5.061.053l2.439-.406z" fill="#081f1b"/><path d="M12.859 35.823c5.408-1.822 7.41-5.584 7.53-5.818l.006-.011-3.286-1.452-5.014-2.215s-1.603 4.102.765 9.496z" fill="#f2c07e"/><path d="M15.196 30.534c.294.129.587.238.878.327l.195.058c1.75.484 3.354.232 3.981-.668a1.5 1.5 0 0 0 .143-.254v-.001L30.957 6.086l-3.286-1.452-5.014-2.216-10.563 23.909c-.58 1.31.81 3.194 3.102 4.206z" fill="#b034f2"/><path d="M12.859 35.823c5.408-1.822 7.41-5.584 7.53-5.818l.006-.011-3.286-1.452-.611 1.382c-.141.318-2.11 4.878-3.639 5.899z" fill="#d6a86f"/><path d="M16.074 30.861l.195.058c1.75.484 3.354.232 3.981-.668l.138-.244.006-.011L30.957 6.086l-3.286-1.452-10.563 23.909-.611 1.382-.423.935z" fill="#b034f2"/><path d="M22.657 2.418c.579-1.31 2.906-1.552 5.198-.539s3.681 2.896 3.102 4.206-2.906 1.552-5.198.539-3.681-2.896-3.102-4.206z" fill="#d6a86f"/><path d="M28.263 5.603a.71.71 0 0 0 .484-1.225c-.416-.39-.953-.736-1.553-1.001s-1.217-.429-1.786-.474a.71.71 0 0 0-.54 1.222c.416.39.953.736 1.553 1.001s1.217.429 1.786.474l.056.002zM11.92 32.996a15.57 15.57 0 0 0 .938 2.828v.001a15.63 15.63 0 0 0 2.613-1.15s-.275-.571-.832-1.074c-.588-.529-1.492-.982-2.72-.604z" fill="#081f1b"/><path d="M12.859 35.824h.004a15.7 15.7 0 0 0 2.61-1.149s-.275-.571-.832-1.074c-.576.965-1.209 1.841-1.781 2.223z" fill="#2b7c67"/></svg>