<svg xmlns="http://www.w3.org/2000/svg" width="27" height="27" fill="none" fill-rule="evenodd" xmlns:v="https://vecta.io/nano"><g fill="#2a2941"><path d="M12.454 16.118l-8.415 3.047 3.415 6.953 8.472-3.031-3.509-6.969h.038z"/><path d="M15.832 14.93c-.339-.062-.66-.203-.906-.422a1.49 1.49 0 0 1-.491-.75c-.076-.281-.057-.578.057-.844s.321-.516.604-.687c.264-.187.604-.297.943-.328a2.27 2.27 0 0 1 1.019.141 1.87 1.87 0 0 1 .774.562 1.34 1.34 0 0 1 .283.813 1.29 1.29 0 0 1-.245.766l3.094-1.125 3.509 6.969-8.472 3.063-1.34-2.703a1.56 1.56 0 0 1-.547.734 1.95 1.95 0 0 1-.925.375c-.34.047-.698.016-1.038-.078-.321-.109-.623-.281-.83-.516s-.34-.516-.377-.797c-.038-.297.038-.578.189-.844s.396-.484.698-.625c.302-.156.642-.234 1-.234.302 0 .604.063.887.188l-1.208-2.437 3.321-1.219zm-5.698-4.172c.509.078.34.656.34.656l-1.189 1.828-3.264-1.375c.208.344.264.719.151 1.094s-.396.688-.774.906a2.17 2.17 0 0 1-1.302.234c-.453-.063-.868-.25-1.151-.547-.321-.313-.472-.719-.434-1.125s.264-.781.642-1.047a1.82 1.82 0 0 1 .887-.312l-3-1.266 4.283-6.641 8.245 3.484-1.113 1.719s-.491.516-.887.156c-.208-.25-.453-.453-.736-.625a2.55 2.55 0 0 0-.698-.234c-.245-.031-.509-.031-.755.016s-.472.141-.679.266a1.66 1.66 0 0 0-.509.469c-.132.188-.207.391-.245.594s0 .422.057.625c.075.203.189.391.358.547s.359.297.585.391c.415.109.811.188 1.189.188z"/></g><path d="M13.417 14.133L5.002 17.18l3.415 6.969 8.472-3.031-3.51-6.969h.038v-.016z" fill="#32edbb"/><path d="M18.171 21.524l-4.226-8.469-10.207 3.688 4.151 8.469 10.283-3.688zm-4.755-7.391L5.002 17.18l3.415 6.969 8.472-3.031-3.51-6.969h.038v-.016z" fill="#2a2941"/><path d="M16.794 12.946c-.34-.062-.66-.203-.906-.422-.245-.203-.415-.469-.491-.75s-.056-.578.057-.844.321-.516.604-.687c.264-.187.604-.297.943-.328a2.27 2.27 0 0 1 1.019.141c.321.125.585.328.774.563.189.25.283.531.283.813 0 .25-.094.5-.245.734l3.075-1.125 3.509 6.969-8.472 3.063-1.377-2.672c-.132.313-.377.578-.698.781-.321.188-.717.297-1.113.297-.491 0-.962-.156-1.302-.453-.34-.281-.547-.672-.547-1.078s.189-.797.547-1.078.811-.453 1.302-.453c.302 0 .604.063.887.188l-1.208-2.437 3.359-1.219z" fill="#ffb800"/><path d="M13.115 15.649c-.396.078-.773.219-1.113.438a2.39 2.39 0 0 0-.774.781 2.12 2.12 0 0 0-.321.984c-.019.344.057.688.208 1s.396.594.698.828.66.406 1.057.516.811.141 1.226.094.811-.156 1.151-.328l1.113 2.25 10.283-3.719-4.227-8.484-2.453.891c-.17-.562-.585-1.047-1.151-1.391-.585-.328-1.283-.469-1.981-.406s-1.34.344-1.811.766c-.472.437-.736.984-.755 1.563 0 .484.17.953.509 1.344l-2.641.953.981 1.922zm3.679-2.703c-.34-.063-.66-.203-.906-.422s-.415-.469-.49-.75-.057-.578.057-.844.321-.516.604-.688c.264-.187.604-.297.943-.328a2.27 2.27 0 0 1 1.019.141c.321.125.585.328.774.563.189.25.283.531.283.813a1.56 1.56 0 0 1-.245.734l3.075-1.125 3.509 6.969-8.472 3.063-1.377-2.672c-.132.313-.377.578-.698.781-.321.188-.717.297-1.113.297-.49 0-.962-.156-1.302-.453-.34-.281-.547-.672-.547-1.078s.189-.797.547-1.078c.34-.281.811-.453 1.302-.453.302 0 .604.063.887.188l-1.208-2.437 3.359-1.219z" fill="#2a2941"/><path d="M11.096 8.774c.509.078.34.656.34.656l-1.189 1.828-3.264-1.375c.151.266.226.547.189.844-.038.281-.17.562-.377.797s-.509.406-.83.5a2.24 2.24 0 0 1-1.019.062c-.34-.062-.66-.203-.906-.406s-.434-.453-.509-.734-.075-.578.038-.844c.113-.281.321-.516.585-.703.245-.172.547-.281.887-.313l-3-1.266L6.322 1.18l8.226 3.484-1.113 1.719s-.49.516-.887.141a3.24 3.24 0 0 0-.736-.625 2.55 2.55 0 0 0-.698-.234c-.245-.031-.509-.031-.755.016s-.472.141-.679.266-.377.281-.509.469-.208.391-.245.594 0 .422.057.625.189.391.359.547.358.297.585.391c.377.125.774.203 1.17.203z" fill="#4c5efd"/><path d="M3.115 9.133c-.415.453-.623 1.031-.585 1.594.057.578.358 1.109.849 1.516s1.151.641 1.849.672 1.377-.156 1.925-.5c.434-.312.755-.734.887-1.203l2.585 1.078 1.679-2.594v-.109a1.82 1.82 0 0 0 0-.781c-.057-.203-.189-.391-.377-.547a1.49 1.49 0 0 0-.679-.281c-.17 0-.377-.047-.547-.063-.113 0-.226-.031-.34-.062-.113-.047-.208-.125-.264-.203-.075-.078-.132-.172-.17-.266s-.038-.203-.019-.297.057-.203.113-.281a.61.61 0 0 1 .245-.219 1.14 1.14 0 0 1 .321-.141c.113-.031.245-.031.359-.016s.245.047.34.094c.245.109.34.313.509.484.207.219.509.344.83.391.321.031.66-.031.925-.172.207-.109.396-.25.566-.406l.057-.063 1.604-2.484L5.832.118.643 8.102l2.396 1 .076.031zm7.981-.359c.509.078.34.656.34.656l-1.189 1.828-3.264-1.375c.151.266.226.547.189.844-.038.281-.17.563-.377.797s-.509.406-.83.5a2.24 2.24 0 0 1-1.019.063c-.34-.063-.66-.203-.906-.406s-.434-.453-.509-.734-.075-.578.038-.844c.113-.281.321-.516.585-.703.245-.172.547-.281.887-.312l-3-1.266L6.322 1.18l8.226 3.484-1.113 1.719s-.49.516-.887.156c-.207-.234-.453-.453-.736-.625a2.55 2.55 0 0 0-.698-.234c-.245-.031-.51-.031-.755.016s-.472.141-.679.266-.377.281-.509.469-.208.391-.245.594 0 .422.057.625c.075.203.189.391.359.547s.358.297.585.391c.377.109.774.172 1.17.188z" fill="#2a2941"/></svg>