<svg xmlns="http://www.w3.org/2000/svg" width="38" height="38" fill="none" xmlns:v="https://vecta.io/nano"><path d="M9.063 29.313c-.312-.062-.562-.125-.875-.25l-.812-.312c-.562-.25-1.062-.562-1.562-.937-1-.687-1.812-1.625-2.437-2.75a7.87 7.87 0 0 1-1.062-3.5c-.062-.625 0-1.187.063-1.812l.188-.875c.063-.312.188-.562.25-.875l.063.875c0 .313.063.563.125.875a12.48 12.48 0 0 0 .313 1.625c.25 1.063.625 2.063 1.187 3s1.188 1.813 2 2.625c.375.375.813.75 1.25 1.125.188.188.438.375.688.563l.625.625zm-.188 2.25c-.187.125-.437.188-.687.25s-.437.125-.687.125c-.437.063-.937.125-1.437.063-.937-.062-1.937-.312-2.75-.75a5.3 5.3 0 0 1-2.125-1.937 7.94 7.94 0 0 1-.687-1.25c-.062-.187-.125-.437-.187-.687 0-.187-.062-.375-.062-.625.188.188.313.375.438.5.188.188.313.375.438.5.313.313.563.625.875.875.625.563 1.25 1.063 2 1.438.688.375 1.5.688 2.25.938.375.125.813.188 1.25.313.188.063.438.063.625.125l.75.125zM23 1.188c.313.063.563.188.875.313a10.27 10.27 0 0 1 .813.375c.563.313 1.063.625 1.563 1 1 .75 1.813 1.75 2.375 2.875s.875 2.375.875 3.563a8.93 8.93 0 0 1-.187 1.813c-.062.313-.125.563-.25.875l-.312.813-.062-.875c0-.312 0-.562-.062-.875l-.187-1.687c-.187-1.062-.562-2.125-1.062-3.125a11.52 11.52 0 0 0-1.879-2.69c-.375-.437-.812-.812-1.187-1.25-.187-.187-.437-.375-.687-.562L23 1.188zm5.438-.25c.25.063.438.125.625.25a2.92 2.92 0 0 1 .625.313l1.125.813c.688.625 1.25 1.375 1.563 2.25a5.19 5.19 0 0 1 .375 2.75c-.062.438-.187.875-.312 1.313-.062.188-.187.438-.25.625-.125.188-.187.375-.375.563v-1.25c0-.437-.062-.812-.062-1.187-.125-.812-.25-1.562-.562-2.25-.312-.75-.687-1.375-1.125-2.062l-.75-1c-.125-.187-.25-.312-.437-.5-.125-.312-.312-.5-.437-.625z" fill="#42ade2"/><path d="M5.25 10.25c-1.25.563-1.687 2.063-1.125 3.313L12 30l4.375-2.062-7.875-16.5c-.562-1.25-2-1.812-3.25-1.187zm20.687 13.062l4.625-2.187-9-18.75c-.625-1.25-2.125-1.812-3.437-1.187-1.25.625-1.812 2.125-1.187 3.438l9 18.687z" fill="#ffdd67"/><path d="M18.188 1.125c-.125.063-.25.125-.375.25a2.61 2.61 0 0 1 3 1.375l9 18.75.813-.375-9-18.75C21 1.062 19.5.5 18.188 1.125z" fill="#eba352"/><path d="M16.375 27.875l4.813-2.312L12 6.437C11.375 5.125 9.75 4.5 8.437 5.125a2.7 2.7 0 0 0-1.25 3.563l9.188 19.188z" fill="#ffdd67"/><path d="M8.438 5.188c-.125.063-.25.125-.375.25 1.188-.312 2.563.25 3.125 1.438l5.688 11.938 1.375.813L12 6.5c-.625-1.375-2.187-1.937-3.562-1.312z" fill="#eba352"/><path d="M20.438 24.062l4.813-2.312-9.187-19.125c-.625-1.312-2.25-1.938-3.562-1.25a2.7 2.7 0 0 0-1.25 3.563l9.188 19.125z" fill="#ffdd67"/><path d="M12.5 1.313c-.125.063-.25.188-.375.25 1.188-.312 2.563.25 3.125 1.438l6.438 13.5 1.375.813-7-14.687A2.67 2.67 0 0 0 12.5 1.313zM5.25 10.25c-.125.063-.25.125-.375.25 1.125-.312 2.313.25 2.813 1.375l4.688 9.813 1.375.813-5.25-11c-.562-1.312-2-1.875-3.25-1.25z" fill="#eba352"/><path d="M37 8.375C35.312 7.062 32.562 8.5 31.187 13c-.937 3.125-1.062 4.063-3.062 5L27 15.687S9.25 24.25 9.937 25.625c0 0 2.125 6.625 5.75 9.688 5.375 4.625 17.937-.312 18.5-12.25C34.5 16.125 38.812 9.812 37 8.375z" fill="#ffdd67"/><path d="M37 8.375c-.312-.25-.687-.375-1.062-.437.063.063.188.063.25.125 1.875 1.438-.062 4.75-1.125 7.75-.875 2.375-1.625 4.813-1.5 7.188.5 10.375-9.937 15.313-16.187 13.438 6.125 2.563 17.5-2.312 17-13.125-.125-2.375.563-4.687 1.5-7.187 1-3 2.938-6.312 1.125-7.75zm-8.312 9.375c-3.875.438-9.562 6-5.562 12.063-2.937-6.125 1.875-10.25 4.938-11.687.313-.25.625-.375.625-.375z" fill="#eba352"/></svg>