<svg width="26" height="25" viewBox="0 0 26 25" fill="none" xmlns="http://www.w3.org/2000/svg">
<path fill-rule="evenodd" clip-rule="evenodd" d="M15.7766 13.9881L20.7885 11.8301L23.1143 17.0776L17.8174 19.3131L15.7766 13.9881Z" fill="#2A2941"/>
<path fill-rule="evenodd" clip-rule="evenodd" d="M21.6588 9.76514L20.7885 11.8299L23.1293 17.1085L23.8646 14.9505L21.6588 9.76514Z" fill="#2A2941"/>
<path fill-rule="evenodd" clip-rule="evenodd" d="M16.4218 13.7396L20.7884 11.83L21.6588 9.70312L16.932 11.7058L16.4218 13.7396Z" fill="#2A2941" stroke="#2A2941" stroke-width="1.8587" stroke-linecap="round" stroke-linejoin="round"/>
<path fill-rule="evenodd" clip-rule="evenodd" d="M10.3447 22.0304C10.9599 24.3125 11.8153 25.4925 14.2911 24.5144L12.8206 20.9126L10.3447 22.0304Z" fill="#2A2941"/>
<path fill-rule="evenodd" clip-rule="evenodd" d="M13.976 1.90967C13.5408 2.00278 13.1357 2.17362 12.7605 2.40647L12.9406 3.29137C12.6255 3.53979 12.3554 3.8503 12.1453 4.20736L11.29 4.09867C11.0949 4.51787 10.9749 4.96811 10.9149 5.41829L11.6952 5.85301C11.6802 6.27221 11.7552 6.69135 11.8902 7.09504L11.29 7.73157C11.47 8.15071 11.7251 8.53887 12.0253 8.88041L12.8206 8.50777C13.1206 8.78724 13.4808 9.00457 13.8709 9.1443L13.976 10.0603C14.4111 10.169 14.8463 10.2 15.2964 10.1689L15.5066 9.28404C15.8967 9.20644 16.2718 9.05119 16.6169 8.8338L17.3522 9.31507C17.6973 9.03567 17.9974 8.69406 18.2225 8.30596L17.6973 7.54521C17.8774 7.17263 17.9974 6.76901 18.0275 6.34981L18.8527 6.05482C18.8527 5.58906 18.7777 5.12336 18.6277 4.68864L17.7574 4.6576C17.5923 4.26944 17.3522 3.91238 17.0671 3.61739L17.3372 2.74801C16.9921 2.45302 16.6019 2.22017 16.1818 2.0494L15.6266 2.74801C15.2364 2.63931 14.8313 2.60828 14.4261 2.65483L13.976 1.90967ZM13.976 3.78816C14.5462 3.57083 15.1614 3.60187 15.7166 3.8503C16.2718 4.09867 16.707 4.57995 16.9171 5.1544C17.0371 5.43387 17.0971 5.74431 17.0971 6.05482C17.0971 6.36533 17.0371 6.67583 16.932 6.9553C16.812 7.25029 16.647 7.49866 16.4369 7.73157C16.2268 7.9489 15.9717 8.11967 15.7016 8.24388C15.1314 8.46121 14.5012 8.43017 13.961 8.18175C13.4058 7.91786 12.9706 7.4521 12.7605 6.87764C12.6405 6.58272 12.5805 6.27221 12.5955 5.96171C12.5955 5.6512 12.6555 5.34069 12.7755 5.04571C12.8956 4.75072 13.0757 4.50235 13.2857 4.28496C13.5108 4.06763 13.7659 3.89686 14.051 3.78816H13.976Z" fill="#2A2941"/>
<path fill-rule="evenodd" clip-rule="evenodd" d="M17.5622 17.1553C17.2021 17.2329 16.872 17.3726 16.5569 17.5745L16.6919 18.3041C16.4218 18.5215 16.1968 18.7699 16.0317 19.0649L15.2964 18.9872C15.1314 19.3288 15.0263 19.6859 14.9814 20.0585L15.6116 20.4C15.5966 20.7416 15.6566 21.0831 15.7616 21.3936L15.2664 21.9214C15.4315 22.263 15.6415 22.5735 15.8817 22.8374L16.5419 22.5269C16.797 22.7443 17.0821 22.915 17.3972 23.0237L17.4722 23.7845C17.8324 23.8776 18.1925 23.9087 18.5527 23.8621L18.7327 23.1479C19.0628 23.0859 19.3629 22.9617 19.633 22.7754L20.2482 23.1635C20.5333 22.9306 20.7884 22.6667 20.9835 22.3406L20.5484 21.7507C20.6984 21.4557 20.8034 21.1141 20.8335 20.7881L21.5087 20.5397C21.5087 20.1672 21.4637 19.7945 21.3437 19.4375H20.6083C20.4733 19.1269 20.2783 18.8475 20.0532 18.5991L20.2783 17.9005C19.9931 17.6676 19.6781 17.4813 19.3329 17.3416L18.8827 17.9005C18.5676 17.8073 18.2375 17.7918 17.9074 17.8384L17.5173 17.2174L17.5622 17.1553ZM17.5622 18.6923C18.0275 18.5059 18.5376 18.5059 18.9878 18.7078C19.438 18.9096 19.7981 19.2822 19.9931 19.7635C20.0832 19.9964 20.1282 20.2448 20.1282 20.5087C20.1282 20.7571 20.0682 21.0055 19.9781 21.2384C19.8881 21.4713 19.738 21.6886 19.573 21.8594C19.3929 22.0301 19.1979 22.1699 18.9728 22.263C18.5076 22.4493 17.9974 22.4493 17.5472 22.2475C17.0971 22.0457 16.737 21.6731 16.5419 21.1918C16.4519 20.9589 16.4068 20.7105 16.4068 20.4466C16.4068 20.1982 16.4669 19.9342 16.5569 19.7014C16.647 19.4685 16.797 19.2512 16.9771 19.0804C17.1271 18.9096 17.3372 18.7699 17.5622 18.6923Z" fill="#2A2941"/>
<path fill-rule="evenodd" clip-rule="evenodd" d="M9.65448 17.6052L9.69946 7.25006L14.9364 7.18799L17.2622 9.62542L17.1872 17.4344L9.65448 17.6052Z" fill="#2A2941"/>
<path fill-rule="evenodd" clip-rule="evenodd" d="M14.8763 9.51668V6.87744L17.4273 9.54778L14.8763 9.51668Z" fill="#2A2941" stroke="#2A2941" stroke-width="1.8587" stroke-linecap="round" stroke-linejoin="round"/>
<path fill-rule="evenodd" clip-rule="evenodd" d="M6.65332 7.62305C0.651129 9.90522 1.31138 19.065 8.66403 20.5864C8.66403 20.5864 9.62441 21.9061 10.1946 22.0613C10.7648 22.2165 12.0553 21.5179 12.0553 21.5179L6.65332 7.62305Z" fill="#2A2941"/>
<path fill-rule="evenodd" clip-rule="evenodd" d="M16.602 12.6995L21.6138 10.5415L23.9396 15.7889L18.6427 18.0245L16.602 12.6995Z" fill="#32EDBB"/>
<path fill-rule="evenodd" clip-rule="evenodd" d="M16.4819 12.4041C16.4068 12.4352 16.3469 12.4973 16.3168 12.5904C16.2868 12.6681 16.2868 12.7612 16.3168 12.8388L18.3576 18.1795C18.3726 18.226 18.3876 18.257 18.4176 18.2881C18.4476 18.3192 18.4776 18.3502 18.5227 18.3657C18.5676 18.3813 18.5977 18.3968 18.6427 18.3968C18.6877 18.3968 18.7327 18.3813 18.7627 18.3657L24.0596 16.1301C24.1346 16.0991 24.1947 16.037 24.2397 15.9594C24.2697 15.8818 24.2697 15.7886 24.2397 15.6955L21.9139 10.448C21.8838 10.3704 21.8238 10.3083 21.7488 10.2772C21.6738 10.2461 21.5837 10.2461 21.5087 10.2772L16.4819 12.4352V12.4041ZM17.007 12.8699L21.4337 10.9448L23.5044 15.6023L18.8077 17.5895L16.9921 12.8544L17.007 12.8699Z" fill="#2A2941"/>
<path fill-rule="evenodd" clip-rule="evenodd" d="M22.4691 8.47656L21.6138 10.5414L23.9546 15.8199L24.6899 13.6619L22.4691 8.47656Z" fill="#FEC34E"/>
<path fill-rule="evenodd" clip-rule="evenodd" d="M22.7692 8.32106C22.7392 8.25898 22.7092 8.21236 22.6491 8.18132C22.6041 8.15029 22.5441 8.13477 22.4841 8.13477C22.424 8.13477 22.3641 8.15029 22.304 8.18132C22.259 8.21236 22.214 8.2745 22.184 8.32106L21.3287 10.3859C21.3137 10.4325 21.2986 10.479 21.2986 10.5256C21.2986 10.5722 21.3137 10.6188 21.3287 10.6654L23.6695 15.9439C23.6995 16.0059 23.7445 16.0526 23.7895 16.0836C23.8346 16.1146 23.8946 16.1301 23.9696 16.1301C24.0297 16.1301 24.0897 16.0991 24.1497 16.0681C24.1947 16.037 24.2397 15.9749 24.2697 15.9128L25.05 13.7548C25.065 13.7082 25.08 13.6772 25.08 13.6306C25.08 13.584 25.065 13.5375 25.05 13.5064L22.7692 8.32106ZM22.4841 9.2681L24.3898 13.6617L23.9246 14.9658L21.9589 10.5256L22.4841 9.2681Z" fill="#2A2941"/>
<path fill-rule="evenodd" clip-rule="evenodd" d="M17.2472 12.4511L21.6138 10.5415L22.4691 8.41455L17.7574 10.4173L17.2472 12.4511Z" fill="#A694FE"/>
<path fill-rule="evenodd" clip-rule="evenodd" d="M16.9771 12.3578C16.9621 12.42 16.9621 12.482 16.9771 12.5286C16.9921 12.5907 17.0221 12.6373 17.0671 12.6839C17.1122 12.7305 17.1722 12.746 17.2172 12.7615C17.2772 12.777 17.3372 12.7615 17.3823 12.746L21.7489 10.8364C21.7788 10.8209 21.8239 10.7898 21.8539 10.7743C21.8839 10.7587 21.8989 10.7122 21.9139 10.6656L22.7842 8.5387C22.8142 8.47656 22.8142 8.41448 22.7992 8.35241C22.7842 8.29027 22.7542 8.22819 22.7092 8.18164C22.6642 8.13502 22.6042 8.10398 22.5441 8.08846C22.4841 8.07294 22.4241 8.08846 22.3641 8.10398L17.6524 10.1067C17.6073 10.1223 17.5624 10.1533 17.5323 10.1843C17.5023 10.2154 17.4723 10.2619 17.4573 10.3086L16.9771 12.3578ZM17.7574 11.8921L18.0725 10.6501L21.9439 9.00446L21.4337 10.293L17.7424 11.8921H17.7574Z" fill="#2A2941"/>
<path fill-rule="evenodd" clip-rule="evenodd" d="M11.6502 21.3007C12.1904 23.3345 12.9706 24.3436 15.1314 23.4898L13.8559 20.3071L11.6502 21.3007Z" fill="#A694FE"/>
<path fill-rule="evenodd" clip-rule="evenodd" d="M14.201 19.3442L10.8248 20.8657L10.9899 21.4556C11.3951 22.946 11.9652 23.9396 12.8806 24.3122C13.7059 24.5762 14.6062 24.5141 15.3865 24.1259L16.0467 23.862L14.201 19.3442ZM11.6502 21.3004C12.1903 23.3341 12.9706 24.3433 15.1314 23.4894L13.8559 20.3068L11.6502 21.3004Z" fill="#2A2941"/>
<path fill-rule="evenodd" clip-rule="evenodd" d="M14.5612 0.807617C14.126 0.900732 13.7209 1.0715 13.3457 1.30441L13.5258 2.20483C13.2107 2.45326 12.9406 2.76377 12.7305 3.12083L11.8752 3.01214C11.6801 3.43134 11.5601 3.866 11.5001 4.33176L12.2804 4.76648C12.2654 5.18562 12.3404 5.62034 12.4904 6.00844L11.8752 6.66049C12.0703 7.07969 12.3103 7.4678 12.6105 7.80934L13.4058 7.45228C13.7209 7.73175 14.066 7.93356 14.4561 8.07329L14.5612 8.98929C14.9963 9.09792 15.4315 9.12902 15.8816 9.09792L16.0918 8.21302C16.4819 8.13537 16.857 7.98011 17.2021 7.76278L17.9374 8.24406C18.2825 7.96459 18.5826 7.62305 18.8077 7.23495L18.2825 6.4742C18.4626 6.10162 18.5826 5.698 18.6127 5.2788L19.4379 4.98381C19.4379 4.51805 19.3629 4.05229 19.2129 3.61763L18.3426 3.58659C18.1775 3.19843 17.9374 2.84137 17.6523 2.54638L17.9224 1.677C17.5773 1.38201 17.1871 1.14916 16.767 0.978389L16.2118 1.677C15.8217 1.5683 15.4165 1.53726 15.0264 1.58382L14.5462 0.823136L14.5612 0.807617ZM14.5612 2.68611C15.1314 2.46878 15.7466 2.49982 16.3018 2.74819C16.857 2.99662 17.2922 3.4779 17.5022 4.05229C17.6223 4.33176 17.6823 4.64226 17.6823 4.95277C17.6823 5.26328 17.6223 5.57378 17.5172 5.85319C17.3972 6.14818 17.2322 6.39661 17.0221 6.62945C16.812 6.84685 16.5569 7.01762 16.2868 7.14177C15.7166 7.35916 15.1014 7.32812 14.5462 7.07969C13.991 6.83126 13.5558 6.35005 13.3457 5.77559C13.2257 5.49613 13.1657 5.18562 13.1657 4.87511C13.1657 4.56467 13.2257 4.25416 13.3307 3.95918C13.4508 3.66419 13.6158 3.41582 13.8259 3.18291C14.021 2.9811 14.2761 2.79481 14.5612 2.68611Z" fill="#FEC34E"/>
<path fill-rule="evenodd" clip-rule="evenodd" d="M15.1464 0.419202L14.8913 0L14.4262 0.108696C13.916 0.217392 13.4358 0.419202 12.9856 0.698608L12.5655 0.962557L12.7606 1.94063C12.6255 2.08037 12.5055 2.2201 12.3854 2.37535L11.4401 2.26666L11.23 2.7169C11.0049 3.19818 10.8699 3.71049 10.8098 4.23833L10.7649 4.71961L11.6051 5.18537C11.6202 5.38718 11.6502 5.58899 11.6952 5.79086L11.0349 6.48947L11.245 6.92419C11.4701 7.42099 11.7702 7.87116 12.1303 8.25933L12.4604 8.61639L13.2858 8.27485C13.4508 8.38354 13.6159 8.49218 13.796 8.58535L13.916 9.56343L14.3661 9.67206C14.8763 9.8118 15.4015 9.84284 15.9117 9.79628L16.4069 9.74972L16.6319 8.78716C16.812 8.72509 16.9771 8.66295 17.1421 8.58535L17.9524 9.11319L18.3426 8.80268C18.7477 8.46114 19.0928 8.05752 19.378 7.60728L19.6331 7.18808L19.0628 6.38077C19.1379 6.19448 19.1829 6.00819 19.2279 5.80638L20.1132 5.48035V4.98356C20.1132 4.44014 20.0232 3.89679 19.8581 3.38447L19.7081 2.91871L18.7628 2.88767C18.6577 2.7169 18.5526 2.54613 18.4176 2.37535L18.7177 1.44384L18.3576 1.13333C17.9524 0.791785 17.5023 0.512317 17.0071 0.310506L16.5569 0.124215L15.9567 0.884961C15.7616 0.853861 15.5816 0.838342 15.3865 0.838342L15.1314 0.403683L15.1464 0.419202ZM14.5612 0.807304C14.126 0.90048 13.7209 1.07125 13.3458 1.3041L13.5258 2.20458C13.2107 2.45295 12.9406 2.76346 12.7305 3.12052L11.8752 3.01189C11.6801 3.43103 11.5601 3.86575 11.5001 4.33151L12.2804 4.76617C12.2654 5.18537 12.3404 5.62009 12.4905 6.00819L11.8752 6.66024C12.0703 7.07944 12.3104 7.46754 12.6105 7.80909L13.4058 7.45203C13.7209 7.73149 14.0661 7.9333 14.4562 8.07304L14.5612 8.98897C14.9964 9.09767 15.4315 9.12871 15.8817 9.09767L16.0918 8.21271C16.4819 8.13511 16.8571 7.97986 17.2022 7.76253L17.9374 8.24381C18.2825 7.96434 18.5827 7.6228 18.8077 7.23469L18.2825 6.47395C18.4626 6.10137 18.5827 5.69768 18.6127 5.27854L19.438 4.98356C19.438 4.5178 19.363 4.05204 19.2129 3.61732L18.3426 3.58628C18.1775 3.19818 17.9374 2.84111 17.6523 2.54613L17.9224 1.67668C17.5773 1.38176 17.1872 1.14885 16.767 0.978076L16.2118 1.67668C15.8217 1.56805 15.4165 1.53701 15.0264 1.58357L14.5462 0.822823L14.5612 0.807304ZM14.5612 2.68586C15.1314 2.46847 15.7466 2.49957 16.3018 2.74794C16.8571 2.99637 17.2922 3.47758 17.5023 4.05204C17.6223 4.33151 17.6823 4.64201 17.6823 4.95252C17.6823 5.26296 17.6223 5.57347 17.5173 5.85294C17.3972 6.14792 17.2322 6.39629 17.0221 6.6292C16.812 6.84653 16.5569 7.0173 16.2868 7.14152C15.7167 7.35885 15.1014 7.32781 14.5462 7.07944C13.991 6.83101 13.5559 6.34973 13.3458 5.77534C13.2257 5.49587 13.1657 5.18537 13.1657 4.87486C13.1657 4.56435 13.2257 4.25385 13.3307 3.95886C13.4508 3.66394 13.6159 3.41551 13.826 3.18266C14.021 2.98079 14.2761 2.79449 14.5612 2.68586ZM14.8163 3.33791C15.2215 3.18266 15.6566 3.19818 16.0467 3.38447C16.4369 3.57076 16.737 3.89678 16.887 4.31599C16.9771 4.5178 17.0221 4.73513 17.0221 4.95252C17.0221 5.16985 16.9921 5.38718 16.902 5.58899C16.827 5.79086 16.707 5.97715 16.5569 6.1324C16.4069 6.28766 16.2268 6.41181 16.0317 6.48947C15.6266 6.64472 15.1915 6.6292 14.8013 6.44291C14.4112 6.25662 14.111 5.93059 13.961 5.51139C13.886 5.30958 13.8409 5.09219 13.826 4.87486C13.826 4.65753 13.871 4.44014 13.946 4.23833C14.021 4.03652 14.1411 3.85023 14.2911 3.69497C14.4412 3.55524 14.6212 3.43103 14.8163 3.33791Z" fill="#2A2941"/>
<path fill-rule="evenodd" clip-rule="evenodd" d="M18.2975 16.1152C17.9374 16.1928 17.5923 16.3326 17.2922 16.5344L17.4272 17.2641C17.1571 17.4659 16.9321 17.7298 16.767 18.0248L16.0317 17.9472C15.8817 18.2887 15.7766 18.6458 15.7317 19.0184L16.3619 19.36C16.3469 19.7015 16.4069 20.0431 16.5119 20.3536L16.0167 20.8659C16.1668 21.2074 16.3769 21.5179 16.632 21.7819L17.2772 21.4869C17.5323 21.7042 17.8174 21.875 18.1325 21.9837L18.2225 22.7444C18.5676 22.8376 18.9428 22.8531 19.303 22.822L19.483 22.1079C19.8131 22.0458 20.1132 21.9216 20.3983 21.7353L20.9985 22.1234C21.2836 21.8905 21.5387 21.611 21.7338 21.3006L21.3137 20.7106C21.4637 20.4001 21.5538 20.0741 21.5987 19.7481L22.274 19.4997C22.274 19.1271 22.214 18.7545 22.1089 18.3974H21.3737C21.2386 18.0869 21.0436 17.8074 20.8185 17.5591L21.0436 16.8604C20.7585 16.6276 20.4434 16.4413 20.0982 16.3015L19.6481 16.8604C19.3329 16.7673 19.0028 16.7518 18.6727 16.7828L18.2826 16.1618L18.2975 16.1152ZM18.2975 17.6522C18.7627 17.4659 19.2729 17.4659 19.7231 17.6832C20.1733 17.8851 20.5334 18.2732 20.7134 18.739C20.8035 18.9718 20.8485 19.2202 20.8485 19.4841C20.8485 19.7326 20.8035 19.9809 20.6985 20.2138C20.6084 20.4467 20.4583 20.6641 20.2933 20.8348C20.1132 21.0056 19.9182 21.1453 19.6781 21.2385C19.2129 21.4248 18.7027 21.4248 18.2526 21.2074C17.8024 21.0056 17.4422 20.6175 17.2622 20.1518C17.1721 19.9188 17.1272 19.6705 17.1272 19.4065C17.1272 19.1581 17.1721 18.8942 17.2772 18.6613C17.3672 18.4285 17.5173 18.2111 17.6973 18.0403C17.8774 17.8696 18.0875 17.7298 18.2975 17.6522Z" fill="#4C5EFD"/>
<path fill-rule="evenodd" clip-rule="evenodd" d="M18.8828 15.7268L18.6277 15.3076L18.1625 15.4008C17.7424 15.5095 17.3522 15.6803 16.9771 15.8976L16.5569 16.1615L16.707 16.9688C16.632 17.0464 16.5569 17.1396 16.4819 17.2327L15.6866 17.1551L15.4766 17.5898C15.2815 17.9935 15.1464 18.4282 15.1014 18.8939L15.0414 19.3907L15.7766 19.7789C15.7916 19.9031 15.8067 20.0117 15.8217 20.1359L15.2665 20.7104L15.4766 21.1606C15.6566 21.5798 15.9117 21.9523 16.2118 22.2784L16.5419 22.6354L17.2772 22.2939C17.3672 22.356 17.4723 22.4181 17.5773 22.4802L17.6673 23.2875L18.1325 23.4117C18.5526 23.5204 19.0028 23.5514 19.4379 23.5049L19.9182 23.4582L20.1132 22.6976L20.4434 22.5733L21.1186 23.0081L21.5087 22.6976C21.8538 22.4181 22.154 22.0766 22.394 21.704L22.6491 21.2848L22.169 20.6327C22.214 20.524 22.244 20.4154 22.259 20.2912L22.9943 20.0117V19.5149C22.9943 19.0647 22.9342 18.6145 22.7842 18.1798L22.6341 17.714H21.8389L21.6438 17.419L21.8989 16.6583L21.5237 16.3478C21.1786 16.0684 20.7885 15.8355 20.3833 15.6803L19.9332 15.5095L19.423 16.1304H19.0628L18.8978 15.851L18.8828 15.7268ZM18.2975 16.1149C17.9374 16.1926 17.5923 16.3323 17.2922 16.5341L17.4272 17.2638C17.1571 17.4656 16.9321 17.7295 16.767 18.0245L16.0317 17.9469C15.8817 18.2885 15.7766 18.6455 15.7317 19.0181L16.3619 19.3597C16.3469 19.7012 16.4069 20.0427 16.5119 20.3532L16.0167 20.8656C16.1668 21.2072 16.3769 21.5176 16.632 21.7816L17.2772 21.4866C17.5323 21.704 17.8174 21.8747 18.1325 21.9834L18.2225 22.7441C18.5676 22.8373 18.9428 22.8528 19.303 22.8217L19.483 22.1076C19.8131 22.0455 20.1132 21.9213 20.3983 21.735L20.9985 22.1231C21.2836 21.8903 21.5387 21.6108 21.7338 21.3003L21.3137 20.7104C21.4637 20.3999 21.5538 20.0738 21.5987 19.7478L22.274 19.4994C22.274 19.1268 22.214 18.7542 22.1089 18.3971H21.3737C21.2386 18.0866 21.0436 17.8072 20.8185 17.5588L21.0436 16.8601C20.7585 16.6273 20.4434 16.4409 20.0982 16.3013L19.6481 16.8601C19.3329 16.767 19.0028 16.7515 18.6727 16.7825L18.2826 16.1615L18.2975 16.1149ZM18.2975 17.6364C18.7627 17.4501 19.2729 17.4501 19.7231 17.6675C20.1733 17.8693 20.5334 18.2574 20.7134 18.7231C20.8035 18.956 20.8485 19.2044 20.8485 19.4683C20.8485 19.7167 20.8035 19.9651 20.6985 20.198C20.6084 20.4309 20.4583 20.6482 20.2933 20.819C20.1132 20.9898 19.9182 21.1295 19.6781 21.2227C19.2129 21.409 18.7027 21.409 18.2526 21.1916C17.8024 20.9898 17.4422 20.6017 17.2622 20.1359C17.1721 19.9031 17.1272 19.6546 17.1272 19.3907C17.1272 19.1423 17.1721 18.8784 17.2772 18.6455C17.3672 18.4126 17.5173 18.1953 17.6973 18.0245C17.8774 17.8537 18.0875 17.714 18.2975 17.6364ZM18.5526 18.304C18.8377 18.1798 19.1679 18.1953 19.453 18.3195C19.7381 18.4437 19.9631 18.6921 20.0832 18.9871C20.1432 19.1268 20.1733 19.2976 20.1733 19.4528C20.1733 19.6081 20.1432 19.7633 20.0832 19.9186C20.0232 20.0583 19.9332 20.198 19.8281 20.3067C19.7231 20.4154 19.588 20.5085 19.4379 20.5551C19.1529 20.6793 18.8227 20.6638 18.5377 20.5395C18.2526 20.4154 18.0275 20.167 17.9075 19.872C17.8474 19.7323 17.8174 19.5615 17.8174 19.4063C17.8174 19.251 17.8474 19.0958 17.9075 18.9405C17.9674 18.8008 18.0575 18.661 18.1625 18.5523C18.2826 18.4592 18.4176 18.3661 18.5526 18.304Z" fill="#2A2941"/>
<path fill-rule="evenodd" clip-rule="evenodd" d="M10.4797 16.3015L10.5097 5.93079L15.7466 5.86865L18.0724 8.30608L17.9974 16.1152L10.4797 16.3015Z" fill="white"/>
<path fill-rule="evenodd" clip-rule="evenodd" d="M9.87945 5.29439L9.83447 16.9692L18.6127 16.7519L18.6877 8.04233L16.0017 5.2168L9.87945 5.29439ZM10.4647 16.3017L10.5097 5.93092L15.7466 5.86885L18.0724 8.30628L17.9974 16.1154L10.4647 16.3017Z" fill="#2A2941"/>
<path fill-rule="evenodd" clip-rule="evenodd" d="M15.3715 8.21312C15.3715 8.25967 15.3715 8.29071 15.3865 8.33733C15.4015 8.38389 15.4315 8.41493 15.4465 8.44597C15.4765 8.47707 15.5065 8.5081 15.5515 8.52362C15.5966 8.53914 15.6266 8.55466 15.6716 8.55466L18.2375 8.60122C18.2975 8.60122 18.3576 8.5857 18.4176 8.55466C18.4776 8.52362 18.5076 8.46149 18.5377 8.41493C18.5676 8.35285 18.5676 8.29071 18.5526 8.22864C18.5377 8.16656 18.5076 8.10442 18.4626 8.05786L15.9117 5.37207C15.8667 5.32545 15.8066 5.29441 15.7467 5.27889C15.6866 5.26337 15.6266 5.27889 15.5666 5.29441C15.5065 5.32545 15.4615 5.35648 15.4315 5.41862C15.4015 5.46518 15.3715 5.52732 15.3715 5.60491V8.21312ZM16.0167 7.88709V6.36566L17.4873 7.88709H16.0167Z" fill="#2A2941"/>
<path fill-rule="evenodd" clip-rule="evenodd" d="M7.97381 6.16336C1.97162 8.44554 2.63188 17.6053 9.98453 19.1267C9.98453 19.1267 10.9449 20.4463 11.5151 20.6016C12.0853 20.7568 13.3757 20.0582 13.3757 20.0582L7.97381 6.13232V6.16336Z" fill="#FEC34E"/>
<path fill-rule="evenodd" clip-rule="evenodd" d="M14.6963 20.6017L8.55903 4.78174L7.59865 5.15432C6.68336 5.49587 5.84302 6.02376 5.12278 6.70685C4.40254 7.38994 3.83231 8.21276 3.44216 9.14428C3.05202 10.0602 2.84196 11.0538 2.82695 12.063C2.81193 13.0721 3.00704 14.0657 3.38217 14.9972C3.89236 16.3013 4.70261 17.4502 5.75301 18.3506C6.8034 19.2511 8.04884 19.872 9.3843 20.1515C9.63939 20.4775 9.92451 20.788 10.2246 21.0675C10.5098 21.3469 10.8549 21.5643 11.23 21.6885C11.6201 21.7661 12.0253 21.7506 12.4154 21.6419C12.9106 21.4866 13.3908 21.3003 13.8559 21.0675L14.6963 20.6017ZM7.97378 6.16343C1.97165 8.44561 2.63185 17.6054 9.98456 19.1269C9.98456 19.1269 10.9449 20.4465 11.5151 20.6017C12.0853 20.757 13.3758 20.0584 13.3758 20.0584L7.97378 6.1324V6.16343Z" fill="#2A2941"/>
<path fill-rule="evenodd" clip-rule="evenodd" d="M2.69197 8.8797L0.966313 8.25874C0.921276 8.24316 0.891311 8.24316 0.846273 8.24316C0.801236 8.24316 0.771271 8.25874 0.726233 8.27426C0.681196 8.28978 0.65123 8.32082 0.621205 8.35186C0.59118 8.3829 0.576168 8.414 0.561155 8.46055C0.546143 8.50711 0.546143 8.53815 0.546143 8.58477C0.546143 8.63133 0.561155 8.66237 0.576168 8.70892C0.59118 8.74002 0.621205 8.78658 0.65123 8.8021C0.681195 8.83314 0.71122 8.84866 0.756258 8.86418L2.48186 9.48519C2.55692 9.51623 2.64693 9.51623 2.72194 9.46967C2.797 9.43863 2.85699 9.36097 2.88701 9.28338C2.91704 9.20572 2.91704 9.11261 2.872 9.03495C2.84198 8.97287 2.76697 8.9108 2.69197 8.8797Z" fill="#2A2941"/>
<path fill-rule="evenodd" clip-rule="evenodd" d="M1.85161 16.1149L0.186003 16.8757C0.111001 16.9067 0.0509506 16.9843 0.0209256 17.062C-0.00909936 17.1396 -0.0090995 17.2327 0.035938 17.3103C0.0509505 17.3414 0.0809753 17.388 0.111 17.419C0.140965 17.4501 0.17099 17.4656 0.216028 17.4812C0.261006 17.4967 0.29103 17.4967 0.336068 17.4967C0.381046 17.4967 0.411071 17.4812 0.456109 17.4656L2.12172 16.7049C2.16669 16.6894 2.19672 16.6739 2.24176 16.6428C2.27178 16.6117 2.30175 16.5807 2.31676 16.5341C2.33177 16.4875 2.34678 16.4409 2.34678 16.3944C2.34678 16.3478 2.33177 16.3012 2.31676 16.2546C2.30175 16.2081 2.27178 16.1771 2.24176 16.146C2.21173 16.1149 2.16669 16.0994 2.12172 16.0839C2.07668 16.0684 2.03164 16.0684 1.98666 16.0684C1.94163 16.0839 1.89659 16.0994 1.85161 16.1149Z" fill="#2A2941"/>
<path fill-rule="evenodd" clip-rule="evenodd" d="M7.02846 21.114L6.29321 22.8528C6.2782 22.8994 6.26318 22.9304 6.26318 22.9771C6.26318 23.0236 6.26318 23.0702 6.2782 23.1012C6.29321 23.1478 6.32323 23.1789 6.33825 23.2099C6.36821 23.241 6.39824 23.272 6.44327 23.2876C6.48831 23.3031 6.51828 23.3186 6.56331 23.3186C6.60835 23.3186 6.65333 23.3186 6.68335 23.3031C6.72839 23.2876 6.75836 23.2565 6.78838 23.241C6.81841 23.2099 6.84843 23.1789 6.86344 23.1323L7.5987 21.3935C7.62872 21.3158 7.62872 21.2227 7.5987 21.1451C7.56867 21.0675 7.50868 21.0054 7.43362 20.9588C7.38858 20.9433 7.35862 20.9277 7.31358 20.9277C7.26854 20.9277 7.22356 20.9277 7.19354 20.9433C7.1485 20.9588 7.11854 20.9898 7.08851 21.0054C7.0735 21.0364 7.04347 21.0675 7.02846 21.114Z" fill="#2A2941"/>
<path fill-rule="evenodd" clip-rule="evenodd" d="M6.50326 2.84054L7.23851 4.57936C7.26853 4.65695 7.32852 4.71903 7.40359 4.75013C7.47859 4.78117 7.56866 4.78117 7.64367 4.75013C7.71867 4.71903 7.77872 4.65695 7.80874 4.57936C7.83871 4.5017 7.83871 4.40859 7.80874 4.33093L7.07343 2.59211C7.04347 2.51451 6.9684 2.46795 6.8934 2.43685C6.81834 2.40581 6.74334 2.40581 6.66833 2.43685C6.59327 2.46795 6.54829 2.53003 6.51827 2.60769C6.47323 2.68528 6.47323 2.76288 6.50326 2.84054Z" fill="#2A2941"/>
</svg>
