<svg width="32" height="34" viewBox="0 0 32 34" fill="none" xmlns="http://www.w3.org/2000/svg">
<path d="M14.6094 33.0288C14.3655 32.8971 14.2029 32.8084 14.2029 32.8084L14.5294 31.5496C14.5294 31.5496 14.6906 31.6294 14.9326 31.7498C15.1754 31.866 15.4955 32.0356 15.8211 32.1809C15.9833 32.2563 16.1455 32.3313 16.2978 32.4016C16.4388 32.4677 16.5683 32.5211 16.6835 32.5718C17.8725 32.2201 19.0649 31.8444 20.222 31.5125C18.1094 26.7088 15.2209 26.723 10.3645 22.1144C5.50811 17.5057 18.483 12.6429 18.483 12.6429C18.483 12.6429 3.55314 10.1751 0.794334 19.7366C-1.6013 28.0408 6.19755 32.761 8.66141 33.2764C10.8355 33.7304 12.0493 34.2212 14.7617 33.1112C14.7085 33.0824 14.6564 33.054 14.6094 33.0288ZM11.6779 13.8229C11.9297 13.7449 12.2714 13.6589 12.6111 13.5688C12.952 13.4875 13.2919 13.4018 13.5481 13.3502C13.8041 13.2951 13.9746 13.2583 13.9746 13.2583L13.9978 13.4703C13.9978 13.4703 13.8288 13.5151 13.5751 13.5818C13.321 13.6456 12.9846 13.747 12.6478 13.8437C12.3127 13.9495 11.9779 14.0501 11.7265 14.1405C11.4752 14.2268 11.3077 14.2843 11.3077 14.2843L11.2559 13.9469C11.2559 13.9469 11.4247 13.897 11.6779 13.8229ZM7.60921 15.5064C7.72773 15.4332 7.86767 15.3504 8.02432 15.2718C8.17869 15.1912 8.34338 15.1016 8.50847 15.0189C8.67398 14.9418 8.83949 14.8653 8.99469 14.7932C9.14928 14.7179 9.29644 14.6618 9.42134 14.6094C9.67156 14.5064 9.83851 14.4376 9.83851 14.4376L9.91807 14.8362C9.91807 14.8362 9.75504 14.9115 9.50997 15.0251C9.38795 15.0823 9.24428 15.1446 9.09382 15.2259C8.94295 15.3039 8.78199 15.3872 8.62101 15.4705C8.46251 15.5589 8.30607 15.6526 8.15808 15.7374C8.01071 15.8187 7.87345 15.9076 7.75576 15.9871C7.52058 16.1422 7.36352 16.2454 7.36352 16.2454L7.21121 15.746C7.211 15.7454 7.37012 15.6499 7.60921 15.5064ZM5.56479 25.6952C5.56479 25.6952 5.53489 25.6507 5.48254 25.573C5.43184 25.4988 5.35022 25.374 5.26077 25.2311C5.08166 24.9425 4.85122 24.5437 4.65212 24.1036C4.45034 23.668 4.2838 23.1923 4.1861 22.8163C4.13623 22.6295 4.1018 22.469 4.07934 22.3557C4.0579 22.2422 4.04575 22.1772 4.04575 22.1772L4.59029 21.9741C4.59029 21.9741 4.60183 22.0284 4.62161 22.1233C4.64243 22.2179 4.67418 22.3522 4.72014 22.51C4.8098 22.8267 4.96314 23.2353 5.15132 23.6167C5.336 24.001 5.55449 24.3571 5.72473 24.6157C5.81089 24.7447 5.87808 24.8432 5.93476 24.9212C5.98896 24.9965 6.02009 25.0398 6.02009 25.0398L5.56479 25.6952ZM6.05121 17.3577C5.99144 17.4182 5.90838 17.5093 5.81068 17.6205C5.61673 17.845 5.36754 18.1608 5.15978 18.5196C5.05445 18.6975 4.95881 18.8841 4.8809 19.0676C4.80031 19.2488 4.73766 19.4271 4.69108 19.5824C4.6682 19.6604 4.64636 19.7319 4.63296 19.7921C4.61812 19.8541 4.60431 19.9018 4.594 19.9585C4.57298 20.0631 4.56103 20.1227 4.56103 20.1227L4.06636 19.9039C4.06636 19.9039 4.07995 19.8449 4.10304 19.7414C4.11314 19.6928 4.13376 19.6189 4.1554 19.5388C4.17642 19.4561 4.20362 19.3725 4.23351 19.2809C4.29348 19.0976 4.37304 18.8909 4.47074 18.6842C4.567 18.4751 4.6816 18.2675 4.80444 18.0724C5.04786 17.6789 5.32713 17.3494 5.54108 17.1181C5.64867 17.0031 5.73957 16.9108 5.80429 16.8492C5.86921 16.7869 5.9059 16.7516 5.9059 16.7516L6.14396 17.2611C6.14396 17.2611 6.11057 17.2964 6.05121 17.3577ZM9.02705 29.327C9.02705 29.327 8.87844 29.2012 8.65605 29.0123C8.54496 28.9174 8.41531 28.811 8.27495 28.6805C8.135 28.5536 7.98597 28.4184 7.83675 28.2831C7.69123 28.1408 7.54593 27.9993 7.40948 27.8662C7.27242 27.736 7.14855 27.6043 7.04302 27.4905C6.83093 27.2639 6.68933 27.113 6.68933 27.113L7.10238 26.3244C7.10238 26.3244 7.24048 26.4635 7.44782 26.6708C7.55067 26.7755 7.67187 26.8962 7.80625 27.0166C7.94002 27.1385 8.08244 27.2686 8.22465 27.3991C8.36934 27.5222 8.51404 27.645 8.64946 27.76C8.78281 27.8769 8.91719 27.9798 9.02993 28.0696C9.25624 28.2487 9.40712 28.3682 9.40712 28.3682L9.02705 29.327ZM12.844 32.0128C12.844 32.0128 12.6861 31.9146 12.4495 31.767C12.2144 31.6234 11.8939 31.4105 11.5771 31.2044C11.2629 30.99 10.9476 30.7807 10.7149 30.6098C10.481 30.4432 10.3251 30.332 10.3251 30.332L10.6815 29.2858C10.6815 29.2858 10.8361 29.3878 11.068 29.5408C11.298 29.6974 11.6113 29.8901 11.9225 30.0861C12.2366 30.275 12.5445 30.4639 12.7869 30.5995C13.0264 30.7377 13.186 30.8287 13.186 30.8287L12.844 32.0128Z" fill="url(#paint0_linear_2_2995)"/>
<path d="M17.0759 0.757437C17.3198 0.889697 17.4824 0.978065 17.4824 0.978065L17.1561 2.23661C17.1561 2.23661 16.9947 2.15684 16.7527 2.03733C16.5102 1.92079 16.1896 1.75087 15.8642 1.60556C15.7018 1.53053 15.5398 1.45551 15.3879 1.38493C15.2467 1.3185 15.117 1.26482 15.002 1.21441C13.8134 1.56612 12.6204 1.94154 11.4637 2.27368C13.5762 7.07774 16.4648 7.06351 21.3212 11.6721C26.1774 16.2808 13.2023 21.1436 13.2023 21.1436C13.2023 21.1436 28.1326 23.6117 30.8912 14.0502C33.287 5.74624 25.4877 1.02581 23.0239 0.51071C20.8498 0.0561035 19.6364 -0.434981 16.924 0.675291C16.9768 0.704057 17.0291 0.732527 17.0759 0.757437ZM20.0074 19.9633C19.7556 20.0416 19.4138 20.1276 19.0742 20.2177C18.7335 20.299 18.3934 20.3847 18.1372 20.4363C17.8812 20.4915 17.7107 20.5282 17.7107 20.5282L17.6873 20.3159C17.6873 20.3159 17.8565 20.2714 18.11 20.2044C18.3641 20.1406 18.7007 20.0395 19.0375 19.9428C19.3728 19.8367 19.7074 19.7362 19.9588 19.6457C20.2103 19.5597 20.3774 19.5022 20.3774 19.5022L20.4294 19.8396C20.4294 19.8396 20.2608 19.8892 20.0074 19.9633ZM24.0761 18.2801C23.9576 18.3533 23.8174 18.4361 23.6612 18.5147C23.5066 18.5953 23.3417 18.6852 23.1768 18.7676C23.0111 18.8447 22.8458 18.9215 22.6906 18.9936C22.536 19.0686 22.3891 19.1244 22.264 19.1769C22.0137 19.2801 21.8468 19.3486 21.8468 19.3486L21.767 18.9503C21.767 18.9503 21.9305 18.8747 22.1749 18.7614C22.2971 18.7042 22.4408 18.6419 22.5915 18.5603C22.7423 18.4823 22.9031 18.399 23.0645 18.316C23.223 18.2273 23.3794 18.1339 23.5272 18.0494C23.6744 17.9678 23.8118 17.8789 23.9295 17.7994C24.1649 17.6449 24.322 17.5414 24.322 17.5414L24.4739 18.0408C24.4739 18.0408 24.315 18.1363 24.0761 18.2801ZM26.1205 8.09134C26.1205 8.09134 26.1506 8.13582 26.203 8.21351C26.2537 8.28765 26.3353 8.4122 26.4245 8.55573C26.6036 8.84427 26.8341 9.24342 27.0332 9.68261C27.235 10.1182 27.4017 10.5942 27.4992 10.9696C27.5491 11.1564 27.5835 11.3172 27.6057 11.4305C27.6272 11.544 27.6395 11.609 27.6395 11.609L27.095 11.8121C27.095 11.8121 27.0837 11.7578 27.0635 11.663C27.0426 11.5684 27.0113 11.434 26.965 11.2763C26.8755 10.9592 26.7221 10.5512 26.534 10.1695C26.3491 9.78551 26.131 9.42907 25.9606 9.17077C25.8746 9.04148 25.8072 8.94273 25.7503 8.86473C25.6963 8.78941 25.6652 8.74612 25.6652 8.74612L26.1205 8.09134ZM25.6343 16.4285C25.6938 16.3677 25.7769 16.2772 25.8746 16.1657C26.0684 15.9415 26.3177 15.6254 26.5253 15.2663C26.6306 15.0887 26.7265 14.9021 26.8044 14.7186C26.8846 14.5374 26.9474 14.3595 26.994 14.2041C27.0169 14.1261 27.0387 14.0543 27.0519 13.9944C27.067 13.9324 27.0808 13.8844 27.0911 13.8277C27.1119 13.7234 27.1236 13.6637 27.1236 13.6637L27.6185 13.8823C27.6185 13.8823 27.6049 13.9416 27.5816 14.0448C27.5719 14.0932 27.5511 14.1673 27.5297 14.2471C27.5087 14.3298 27.4813 14.4134 27.4516 14.5054C27.3914 14.6889 27.3118 14.8953 27.2141 15.1017C27.1179 15.3108 27.0033 15.5187 26.8807 15.7135C26.6372 16.1067 26.358 16.4365 26.1438 16.6678C26.0362 16.7825 25.9451 16.8751 25.8804 16.9367C25.8157 16.9987 25.7788 17.0343 25.7788 17.0343L25.5407 16.5248C25.5407 16.5248 25.5747 16.4899 25.6343 16.4285ZM22.6582 4.45982C22.6582 4.45982 22.8066 4.58526 23.0292 4.77416C23.1403 4.86906 23.2698 4.97552 23.4105 5.106C23.5505 5.23293 23.6995 5.36844 23.8487 5.50366C23.9941 5.64541 24.1392 5.78746 24.2758 5.92031C24.4129 6.0505 24.537 6.18246 24.6425 6.29664C24.8546 6.5226 24.9958 6.67354 24.9958 6.67354L24.5829 7.46206C24.5829 7.46206 24.445 7.32358 24.2375 7.11599C24.1346 7.01131 24.0136 6.89032 23.8788 6.77051C23.7453 6.64834 23.6029 6.51786 23.4606 6.38738C23.3162 6.26461 23.1715 6.14184 23.0356 6.02678C22.9025 5.91023 22.7681 5.80674 22.6554 5.71718C22.4291 5.53806 22.2782 5.41856 22.2782 5.41856L22.6582 4.45982ZM18.8411 1.7737C18.8411 1.7737 18.9989 1.87215 19.2356 2.01954C19.4709 2.16306 19.7916 2.37599 20.1082 2.58209C20.4221 2.79649 20.7377 3.00615 20.9706 3.17637C21.2041 3.34332 21.3601 3.45423 21.3601 3.45423L21.0038 4.50075C21.0038 4.50075 20.8492 4.39874 20.6175 4.24542C20.3871 4.08884 20.074 3.89639 19.7626 3.69978C19.4485 3.51177 19.1407 3.32227 18.8979 3.18616C18.6586 3.04856 18.4987 2.95692 18.4987 2.95692L18.8411 1.7737Z" fill="#259525"/>
<defs>
<linearGradient id="paint0_linear_2_2995" x1="10.2821" y1="33.1823" x2="10.2821" y2="15.9213" gradientUnits="userSpaceOnUse">
<stop stop-color="#F6F6F6"/>
<stop offset="1" stop-color="#B8B8B8"/>
</linearGradient>
</defs>
</svg>
