<svg width="26" height="26" viewBox="0 0 26 26" fill="none" xmlns="http://www.w3.org/2000/svg">
<path d="M24.7207 10.5673L17.4023 3.03809L15.4833 5.50383L16.8379 6.91279L16.3675 6.60452L11.4573 8.67396L9.72646 10.6774L9.80167 9.79675L9.55714 9.86277C8.44715 10.105 7.35599 10.5453 6.34005 11.1837L3.93194 12.6588L3.6874 14.5521L3.87554 11.1837L1.03467 11.0296L0.39502 22.4115L3.25464 22.5876L3.32993 21.3768L4.28941 21.5969C4.12008 22.1914 4.3647 22.8519 4.87259 23.094C5.39939 23.3582 6.0014 23.0499 6.22719 22.4336L6.35887 22.0373L6.60341 22.1033L6.20837 23.2481C5.98258 23.8865 6.24601 24.613 6.77273 24.8552C7.31835 25.1194 7.93918 24.8112 8.14615 24.1947L8.71051 22.5876L9.08681 22.6757L8.67287 23.8645C8.44715 24.503 8.71051 25.2295 9.23731 25.4716C9.78293 25.7358 10.4038 25.4276 10.6107 24.8112L11.1939 23.16L11.4573 23.2261L11.1939 23.9526C10.9681 24.591 11.2315 25.3175 11.7583 25.5597C12.3039 25.8238 12.9247 25.5157 13.1317 24.8992L13.5456 23.7104L13.7901 23.182L16.2359 24.0627C16.7815 24.2608 17.4023 23.9305 17.5904 23.2921C17.7785 22.6317 17.4775 21.9052 16.8943 21.7071L14.5802 20.8704L14.5991 20.7824L17.835 21.9492C18.3806 22.1474 19.0014 21.8171 19.1896 21.1786C19.3777 20.5182 19.1143 19.6156 18.5311 19.4175L15.2764 18.2947L15.3328 18.0965L18.5311 19.1973C19.0766 19.3955 19.7539 18.9551 19.9421 18.3167C20.1302 17.6562 19.8292 16.9297 19.246 16.7316L16.0289 15.5648L19.4718 16.5995C20.0361 16.7976 20.6194 16.4234 20.7887 15.7849C20.958 15.1244 20.6381 14.442 20.0926 14.2438L16.7815 12.8128L12.5108 10.8975L20.4124 13.4513C20.4124 13.4513 21.1461 12.967 21.3154 12.3285C21.3719 12.1524 21.3907 11.9763 21.4095 11.8002L22.7452 13.1651L24.7207 10.5673Z" fill="#2A2941"/>
<path d="M12.191 25.9998C12.0029 25.9998 11.8148 25.9557 11.6454 25.8676C11.3068 25.7136 11.0622 25.4053 10.9117 25.0531C10.5731 25.8016 9.78287 26.1318 9.10565 25.8016C8.69171 25.6034 8.39071 25.1851 8.27785 24.7008C8.12735 24.921 7.9392 25.0751 7.71341 25.1851C7.35601 25.3613 6.9609 25.3613 6.62225 25.1851C6.26485 25.0091 6.00142 24.7008 5.85092 24.2825C5.75688 24.0183 5.71924 23.7322 5.75688 23.446C5.41823 23.6001 5.06076 23.578 4.72211 23.424C4.17657 23.1598 3.83792 22.5213 3.85674 21.8609L3.6686 21.8169L3.61213 22.9617L0 22.7415L0.696045 10.501L4.28943 10.6991L4.21414 11.932L6.17074 10.7212C7.20551 10.0827 8.33432 9.62037 9.48187 9.37821L10.2156 9.20206L10.1968 9.46623L11.2503 8.25541L15.7655 6.36212L14.9566 5.5255L17.3647 2.42139L25.2475 10.523L22.8206 13.6712L21.6729 12.4823C21.4096 13.1869 20.7323 13.6492 20.6382 13.7152L20.5065 13.8033H20.4877C20.7511 13.9574 20.9768 14.1996 21.1085 14.5077C21.2966 14.904 21.3343 15.3664 21.2214 15.7847C21.0709 16.357 20.6946 16.7533 20.2243 16.9075C20.2431 16.9515 20.2619 16.9735 20.2808 17.0175C20.4501 17.4358 20.4877 17.8981 20.356 18.3164C20.2055 18.8668 19.8104 19.2631 19.3589 19.4612C19.3965 19.5273 19.453 19.6153 19.4906 19.7034C19.6975 20.1657 19.7351 20.7381 19.6035 21.2004C19.3777 21.9489 18.7005 22.4112 18.0232 22.3012C18.0984 22.6314 18.0984 22.9837 18.0043 23.3139C17.7597 24.1725 16.932 24.6348 16.1794 24.3706L14.0159 23.6001L13.9219 23.7762L13.5079 24.943C13.301 25.6034 12.7554 25.9998 12.191 25.9998ZM10.987 22.5654L12.0029 22.7855L11.5702 23.9963C11.4197 24.3926 11.589 24.877 11.9464 25.0311C12.2851 25.2071 12.699 25.0091 12.8306 24.5908L13.2634 23.3579L13.6584 22.5213L16.4052 23.512C16.7815 23.6441 17.1765 23.424 17.2894 23.0277C17.3459 22.8295 17.327 22.6094 17.2518 22.4112C17.1765 22.2132 17.026 22.081 16.8379 22.015L14.1476 21.0463L14.4109 20.1216L18.0043 21.4206C18.3806 21.5527 18.7757 21.3325 18.8885 20.9362C18.9638 20.6941 18.945 20.3639 18.8321 20.1216C18.7757 20.0116 18.6816 19.8134 18.4935 19.7474L14.8814 18.4925L15.1635 17.4358L18.7004 18.6686C19.0578 18.8008 19.5282 18.4925 19.6411 18.0523C19.6975 17.8541 19.6787 17.634 19.6035 17.4358C19.5094 17.2377 19.3777 17.1055 19.1895 17.0395L15.9725 15.8727L16.1794 15.0362L19.6223 16.0709C19.9985 16.203 20.3748 15.9608 20.4877 15.5425C20.5441 15.3444 20.5253 15.1242 20.4313 14.9261C20.3372 14.7279 20.2055 14.5959 20.0361 14.5298H20.0173L16.7062 13.0988L12.4168 11.1835L12.6426 10.3469L20.3748 12.8566C20.5818 12.6805 20.9016 12.3723 20.9956 12.0641C21.0333 11.932 21.0521 11.7999 21.0709 11.6238L21.165 10.8092L22.7453 12.4383L24.1563 10.611L17.4023 3.67622L15.9913 5.48149L19.848 9.44423L16.3112 7.0666L11.6454 9.02601L9.23733 11.7999L9.36901 10.3028C8.37189 10.545 7.41241 10.9633 6.50939 11.5137L4.2706 12.8786L4.04481 14.5518L3.2923 14.4637L3.46163 11.5357L1.35452 11.4256L0.771333 21.9269L2.87844 22.059L2.95365 20.7821L4.75976 21.1784L4.62808 21.6627C4.51522 22.037 4.68447 22.4553 5.00429 22.6094C5.17362 22.6975 5.34294 22.6975 5.51227 22.6094C5.68159 22.5213 5.79445 22.3892 5.86974 22.1911L6.1331 21.4646L7.13022 21.6847L6.54704 23.3139C6.47175 23.512 6.47175 23.7322 6.54704 23.9303C6.62225 24.1285 6.75393 24.2825 6.92325 24.3706C7.09258 24.4587 7.28073 24.4587 7.45005 24.3706C7.61937 24.2825 7.75106 24.1285 7.82634 23.9303L8.52239 21.993L9.65119 22.2572L9.04918 23.9303C8.89868 24.3266 9.06801 24.8109 9.42548 24.965C9.76413 25.1411 10.178 24.943 10.3097 24.5248L10.987 22.5654Z" fill="#2A2941"/>
<path d="M20.9015 11.6901L17.5904 10.2591L13.3198 8.34369L9.89573 10.5453L11.3632 7.35303L10.2908 7.41905C9.18086 7.66121 8.0897 8.10153 7.07375 8.73999L4.66564 10.215L3.53683 18.8009L14.3357 21.2226L14.5803 20.6943L17.026 21.5748C17.5527 21.773 18.136 21.4868 18.3617 20.8924C18.6063 20.21 18.2865 19.4394 17.7033 19.2412L15.3892 18.4047L15.4081 18.3166L18.644 19.4834C19.1895 19.6816 19.8104 19.3514 19.9985 18.7129C20.1866 18.0524 19.9233 17.1498 19.34 16.9516L16.0854 15.8289L16.1418 15.6308L19.34 16.7315C19.8856 16.9296 20.5629 16.4893 20.751 15.8509C20.9392 15.1905 20.6382 14.464 20.055 14.2658L16.8379 13.099L20.2807 14.1337C20.8451 14.3319 21.4283 13.9576 21.5976 13.3192C21.7858 12.5927 21.466 11.8882 20.9015 11.6901Z" fill="white"/>
<path d="M17.3647 22.0372C17.2142 22.0372 17.0637 22.0151 16.9319 21.9491L14.7684 21.1786L14.5426 21.6629L3.12299 19.1092L4.34583 9.88474L6.92326 8.29963C7.95803 7.66117 9.08683 7.19884 10.2344 6.95668H10.2909L12.0217 6.86865L10.8365 9.44443L13.2822 7.88132L17.7221 9.86273L21.0333 11.2937C21.3907 11.4258 21.6917 11.712 21.861 12.1083C22.0492 12.5045 22.0868 12.9668 21.9739 13.3852C21.861 13.8035 21.6165 14.1558 21.2778 14.3758C21.1838 14.4419 21.0897 14.4859 20.9768 14.5079C20.9956 14.552 21.0145 14.574 21.0333 14.6181C21.2026 15.0363 21.2402 15.4986 21.1085 15.9169C20.958 16.4674 20.563 16.8636 20.1114 17.0617C20.149 17.1277 20.2055 17.2159 20.2431 17.3039C20.45 17.7662 20.4877 18.3386 20.356 18.801C20.1302 19.5715 19.453 20.0118 18.7757 19.9017C18.8697 20.276 18.8509 20.6723 18.7192 21.0245C18.4935 21.6629 17.9479 22.0372 17.3647 22.0372ZM14.411 20.1438L17.1577 21.1346C17.5152 21.2666 17.8914 21.0685 18.0232 20.6943C18.0984 20.4741 18.0984 20.2539 18.0043 20.0558C17.929 19.8576 17.7785 19.7035 17.5904 19.6375L14.9001 18.6688L15.1635 17.7442L18.7569 19.0431C19.1331 19.1752 19.5282 18.955 19.641 18.5588C19.7163 18.3166 19.6975 17.9864 19.5846 17.7442C19.5282 17.6342 19.4341 17.436 19.246 17.3699L15.6339 16.1151L15.9161 15.0583L19.453 16.2912C19.8104 16.4233 20.2807 16.1151 20.3936 15.6748C20.45 15.4766 20.4312 15.2564 20.356 15.0583C20.2807 14.8602 20.1302 14.7281 19.942 14.6621L16.725 13.4953L16.9319 12.6587L20.3748 13.6934C20.563 13.7595 20.751 13.7374 20.9203 13.6493C21.0897 13.5393 21.2026 13.3852 21.259 13.187C21.3155 12.9889 21.2966 12.7688 21.2026 12.5706C21.1085 12.3725 20.9768 12.2404 20.8075 12.1743H20.7887L17.4775 10.7434L13.3574 8.89408L8.9739 11.712L10.7424 7.88132L10.3661 7.90342C9.29373 8.14558 8.25904 8.5638 7.28073 9.15825L5.04195 10.5232L3.98843 18.4707L14.1664 20.7383L14.411 20.1438Z" fill="#2A2941"/>
<path d="M17.1013 4.18311L12.0781 5.63609L9.29379 9.59883C8.42835 10.8758 8.67289 12.4609 10.2156 11.272L13.301 8.366L20.9016 11.7123C20.9016 11.7123 21.9363 10.4354 22.1056 9.79698C22.3878 8.80631 22.1244 7.55139 22.1244 7.55139L17.1013 4.18311Z" fill="white"/>
<path d="M21.0145 12.2187L13.3951 8.85028L10.4414 11.6242C9.40668 12.4388 8.87988 12.0865 8.67291 11.8224C8.25905 11.294 8.39073 10.2372 9.01156 9.33461L11.8712 5.23983L17.1766 3.69873L22.4819 7.24316L22.5195 7.4193C22.5383 7.48532 22.8018 8.80627 22.4819 9.90705C22.275 10.6335 21.2967 11.8444 21.1838 11.9985L21.0145 12.2187ZM12.2851 6.01033L9.576 9.86295C9.14324 10.5014 9.10567 11.0739 9.19971 11.2059C9.21853 11.2499 9.46307 11.294 9.98986 10.8977L13.2258 7.83761L20.7887 11.1619C21.165 10.6776 21.6541 9.97307 21.7482 9.62078C21.9363 8.9604 21.8423 8.14579 21.8046 7.7936L17.0449 4.60137L12.2851 6.01033Z" fill="#2A2941"/>
<path d="M7.50649 22.3674C6.96095 22.1032 6.71634 21.3768 6.94213 20.7603L8.07093 17.5681C8.29665 16.9297 8.91748 16.6434 9.44428 16.9076C9.98989 17.1719 10.2344 17.8983 10.0087 18.5147L8.87991 21.7069C8.67294 22.3454 8.05211 22.6316 7.50649 22.3674Z" fill="white"/>
<path d="M7.92038 22.9179C7.73231 22.9179 7.54417 22.8739 7.37484 22.7858C7.01737 22.6097 6.75401 22.3015 6.60351 21.8832C6.45301 21.4649 6.45301 21.0026 6.60351 20.6063L7.73231 17.4141C7.88282 16.9958 8.14617 16.6876 8.50365 16.5115C8.86112 16.3354 9.25616 16.3354 9.59481 16.5115C9.95228 16.6876 10.2156 16.9958 10.3661 17.4141C10.5166 17.8324 10.5166 18.2947 10.3661 18.691L9.23734 21.8832C9.01162 22.5217 8.466 22.9179 7.92038 22.9179ZM7.65702 21.9712C7.99567 22.1474 8.40954 21.9492 8.54129 21.5309L9.67002 18.3388C9.74531 18.1406 9.74531 17.9205 9.67002 17.7223C9.59481 17.5242 9.46313 17.37 9.2938 17.282C9.12448 17.194 8.93633 17.194 8.76701 17.282C8.59768 17.37 8.466 17.5242 8.39071 17.7223L7.26198 20.9146C7.18669 21.1126 7.18669 21.3328 7.26198 21.5309C7.3372 21.7291 7.4877 21.8832 7.65702 21.9712Z" fill="#2A2941"/>
<path d="M9.9899 22.9841C9.44429 22.7199 9.19975 21.9934 9.42547 21.377L10.5543 18.1848C10.7801 17.5464 11.4009 17.2601 11.9277 17.5243C12.4732 17.7886 12.7178 18.515 12.4921 19.1314L11.3632 22.3236C11.1563 22.9401 10.5354 23.2483 9.9899 22.9841Z" fill="white"/>
<path d="M10.4038 23.5122C10.2157 23.5122 10.0275 23.4682 9.85818 23.3801C9.50078 23.2039 9.23735 22.8958 9.08685 22.4774C8.93634 22.0592 8.93634 21.5969 9.08685 21.2006L10.2157 18.0084C10.3662 17.5901 10.6295 17.2819 10.987 17.1057C11.3445 16.9296 11.7396 16.9296 12.0781 17.1057C12.4356 17.2819 12.699 17.5901 12.8496 18.0084C13.0001 18.4267 13.0001 18.889 12.8496 19.2853L11.7207 22.4774C11.5702 22.8958 11.3068 23.2039 10.9493 23.3801C10.7801 23.4682 10.5919 23.5122 10.4038 23.5122ZM11.5326 17.8322C11.4385 17.8322 11.3633 17.8542 11.2692 17.8983C11.0999 17.9864 10.9682 18.1405 10.8929 18.3386L9.76414 21.5308C9.68885 21.7289 9.68885 21.9491 9.76414 22.1473C9.83936 22.3454 9.97111 22.4995 10.1404 22.5876C10.3097 22.6756 10.4978 22.6756 10.6672 22.5876C10.8365 22.4995 10.9682 22.3454 11.0435 22.1473L12.1723 18.955C12.2475 18.7569 12.2475 18.5367 12.1723 18.3386C12.097 18.1405 11.9653 17.9864 11.796 17.8983C11.7207 17.8542 11.6266 17.8322 11.5326 17.8322Z" fill="#2A2941"/>
<path d="M12.5484 23.0499C12.0028 22.7856 11.7583 22.0591 11.9841 21.4428L12.6425 19.5935C12.8683 18.955 13.4891 18.6688 14.0159 18.933C14.5614 19.1972 14.806 19.9237 14.5803 20.5401L13.9218 22.3894C13.6961 23.0058 13.0752 23.314 12.5484 23.0499Z" fill="white"/>
<path d="M12.9436 23.5781C12.7554 23.5781 12.5673 23.5341 12.398 23.4461C11.6643 23.0938 11.3256 22.1031 11.6266 21.2445L12.2851 19.3952C12.5861 18.5366 13.4327 18.1404 14.1664 18.4926C14.5239 18.6687 14.7872 18.9769 14.9377 19.3952C15.0883 19.8135 15.0883 20.2758 14.9377 20.6721L14.2793 22.5214C14.1288 22.9396 13.8654 23.2479 13.5079 23.424C13.3198 23.5341 13.1317 23.5781 12.9436 23.5781ZM13.6021 19.2631C13.3386 19.2631 13.0753 19.4392 12.9624 19.7475L12.3039 21.5968C12.1534 21.993 12.3227 22.4773 12.6801 22.6314C12.8495 22.7195 13.0376 22.7195 13.2069 22.6314C13.3763 22.5434 13.5079 22.3893 13.5832 22.1911L14.2417 20.3419C14.3169 20.1437 14.3169 19.9235 14.2417 19.7254C14.1664 19.5273 14.0347 19.3732 13.8654 19.2852C13.7714 19.2631 13.6961 19.2631 13.6021 19.2631Z" fill="#2A2941"/>
<path d="M5.60636 20.6065C5.07957 20.3424 4.83495 19.6379 5.04192 19.0214L5.36175 18.1408C5.58754 17.5244 6.18955 17.2382 6.71634 17.4803C7.24307 17.7446 7.48768 18.4491 7.28071 19.0654L6.96088 19.9461C6.73517 20.5625 6.13308 20.8707 5.60636 20.6065Z" fill="white"/>
<path d="M6.00143 21.1348C5.81328 21.1348 5.64396 21.0907 5.45589 21.0027C4.74095 20.6505 4.4023 19.6818 4.68455 18.8452L5.00431 17.9646C5.30539 17.128 6.13311 16.7318 6.84805 17.062C7.1867 17.2381 7.46888 17.5463 7.61939 17.9646C7.76989 18.3609 7.76989 18.8232 7.61939 19.2194L7.29956 20.1001C7.14906 20.4964 6.8857 20.8266 6.52823 21.0027C6.3589 21.0907 6.18958 21.1348 6.00143 21.1348ZM6.30243 17.8545C6.03907 17.8545 5.79454 18.0306 5.70043 18.3389L5.3806 19.2194C5.24892 19.6157 5.39942 20.0561 5.73807 20.2322C5.90739 20.3202 6.07672 20.3202 6.24604 20.2322C6.41537 20.1441 6.52823 20.012 6.60344 19.8139L6.92327 18.9333C6.99856 18.7351 6.99856 18.537 6.92327 18.3389C6.84805 18.1408 6.73519 18.0086 6.56587 17.9206C6.47176 17.8545 6.39654 17.8545 6.30243 17.8545Z" fill="#2A2941"/>
<path d="M3.98843 20.1L4.60926 8.7181L1.76847 8.56396L1.12881 19.9238L3.98843 20.1Z" fill="#A694FE"/>
<path d="M4.34588 20.5627L0.733673 20.3425L1.41097 8.10205L5.00435 8.3002L4.34588 20.5627ZM1.52383 19.506L3.63094 19.6381L4.2142 9.13681L2.12591 9.02669L1.52383 19.506Z" fill="#2A2941"/>
<path d="M23.5542 10.6336L16.217 3.08244L18.1548 0.616699L25.4732 8.14596L23.5542 10.6336Z" fill="#32EDBB"/>
<path d="M23.573 11.2498L15.6903 3.12621L18.1172 0L26 8.10162L23.573 11.2498ZM16.7626 3.0601L23.5167 10.017L24.9276 8.18973L18.1736 1.25492L16.7626 3.0601Z" fill="#2A2941"/>
</svg>
