<svg width="26" height="31" viewBox="0 0 26 31" fill="none" xmlns="http://www.w3.org/2000/svg">
<path fill-rule="evenodd" clip-rule="evenodd" d="M6.1239 20.3462L2.19739 21.9547L5.90773 30.3397L9.87021 28.714L6.1239 20.3462Z" fill="#2A2941"/>
<path fill-rule="evenodd" clip-rule="evenodd" d="M11.2931 14.5283L7.38464 16.1882L12.4998 27.7218L16.4443 26.0449L11.2931 14.5283Z" fill="#2A2941"/>
<path fill-rule="evenodd" clip-rule="evenodd" d="M16.012 7.71777L12.1577 9.41192L19.0739 25.0525L23.0004 23.3413L16.012 7.71777Z" fill="#2A2941"/>
<path fill-rule="evenodd" clip-rule="evenodd" d="M5.79963 6.53685C3.06192 10.4213 0 15.0245 0 15.0245L2.5036 16.5988C2.5036 16.5988 6.89834 9.66836 8.30323 7.90578L10.4286 9.03524V2.27588L3.83641 5.40739L5.79963 6.53685Z" fill="#2A2941"/>
<path fill-rule="evenodd" clip-rule="evenodd" d="M7.47469 16.9927L3.62033 18.6012L7.2586 27.0034L11.113 25.3606L7.47469 16.9927Z" fill="#FEC34E"/>
<path fill-rule="evenodd" clip-rule="evenodd" d="M12.5899 25.8909L8.06912 15.5894L2.21542 18.0535L6.70026 28.3722L12.5899 25.8909ZM7.47475 16.9926L3.62032 18.6011L7.25859 27.0033L11.113 25.3605L7.47475 16.9926Z" fill="#2A2941"/>
<path fill-rule="evenodd" clip-rule="evenodd" d="M12.5359 11.1572L8.68152 12.8171L13.7067 24.3678L17.5611 22.6909L12.5359 11.1572Z" fill="#31CEA8"/>
<path fill-rule="evenodd" clip-rule="evenodd" d="M19.0199 23.2041L13.1122 9.75391L7.31256 12.2694L13.1663 25.7539L19.0199 23.2041ZM12.5359 11.1571L8.68142 12.817L13.7066 24.3677L17.561 22.6908L12.5359 11.1571Z" fill="#2A2941"/>
<path fill-rule="evenodd" clip-rule="evenodd" d="M17.1828 4.36377L13.3644 6.05785L20.1726 21.7327L24.0271 20.0044L17.1828 4.39798V4.36377Z" fill="#4C5EFD"/>
<path fill-rule="evenodd" clip-rule="evenodd" d="M25.45 20.5172L17.7231 2.94287L11.9235 5.52686L19.5783 23.1183L25.45 20.5172ZM17.1648 4.36319L13.3464 6.05735L20.1726 21.7321L24.0271 20.0038L17.1828 4.39747L17.1648 4.36319Z" fill="#2A2941"/>
<path fill-rule="evenodd" clip-rule="evenodd" d="M6.10589 4.85985C3.11598 9.29195 0.252197 13.1765 0.252197 13.1765L2.97189 14.9561C2.97189 14.9561 7.29462 8.41922 8.82558 6.41709L11.131 7.68339V0L3.96254 3.59355L6.10589 4.85985Z" fill="#7772EE"/>
<path fill-rule="evenodd" clip-rule="evenodd" d="M6.10589 4.85985C3.11598 9.29195 0.252197 13.1765 0.252197 13.1765L2.97189 14.9561C2.97189 14.9561 7.29462 8.41922 8.82558 6.41709L11.131 7.68339V0L3.96254 3.59355L6.10589 4.85985ZM6.75424 5.25342L7.18657 4.63741L5.51153 3.66204L10.3926 1.19786V6.41709L8.64546 5.49304L8.23122 6.02352C6.98843 7.64918 3.89047 12.2523 2.77382 13.9636L1.33288 13.0395C2.23344 11.7047 4.46681 8.62455 6.75424 5.23632V5.25342Z" fill="#2A2941"/>
</svg>
