<svg width="32" height="38" viewBox="0 0 32 38" fill="none" xmlns="http://www.w3.org/2000/svg">
<path d="M15.0601 36.5363C13.416 36.6718 11.7621 36.6979 10.1192 36.5201C8.52755 36.3478 6.90732 36.007 5.42514 35.2237C5.06782 35.0348 4.72125 34.8173 4.3829 34.5788C4.051 34.3451 3.72124 34.0968 3.42064 33.8014C2.84351 33.2341 2.35741 32.5133 2.02931 31.6831C1.68274 30.8064 1.51332 29.8339 1.47532 28.8579C1.43892 27.9234 1.53155 26.9883 1.92011 26.1755C2.65561 24.637 4.10403 23.8942 5.40635 23.4241C6.95065 22.8667 8.55953 22.6158 10.1545 22.4307C11.4402 22.2815 12.7298 22.1885 14.0191 22.1071C14.5892 22.0711 15.1593 22.036 15.7295 22.001C16.182 21.9734 16.6353 21.977 17.0882 21.9632C17.9059 21.9383 18.7235 21.8955 19.5401 21.8348C21.1728 21.7132 22.809 21.5328 24.4228 21.189C25.0907 21.0467 25.752 20.8859 26.3975 20.6212C27.1476 20.3136 27.8776 19.9165 28.5662 19.4293C29.8608 18.5136 31.0946 17.2111 31.6648 15.4256C31.9552 14.5167 32.0638 13.4898 31.9629 12.5163C31.8669 11.5908 31.5461 10.7313 31.0612 10.0323C30.423 9.11189 29.5578 8.52121 28.6735 8.07085C27.2092 7.32504 25.6086 6.99676 24.0398 6.88708C23.0514 6.81793 22.0539 6.83087 21.0669 6.93643C19.721 7.08049 18.3794 7.28232 17.038 7.48205C15.3991 7.72613 13.7605 7.99508 12.1163 8.17594C11.299 8.2659 10.4864 8.40568 9.67058 8.51404C8.85509 8.62232 8.03746 8.70807 7.21823 8.75227C6.40612 8.79609 5.59051 8.8056 4.77926 8.73076C3.99434 8.65834 3.19561 8.5085 2.45624 8.15411C1.82245 7.85031 1.22285 7.36394 0.859888 6.61914C1.208 7.51564 1.87659 8.10484 2.58024 8.49595C3.32544 8.91006 4.13718 9.12764 4.93928 9.27256C6.60113 9.57293 8.29171 9.56669 9.9659 9.4963C10.3869 9.4786 10.8079 9.4574 11.2285 9.42801C11.649 9.39862 12.0675 9.33765 12.4858 9.27763C12.8029 9.2321 13.1202 9.18985 13.4375 9.14604C14.761 8.96338 16.0829 8.76179 17.4053 8.56557C18.6953 8.37411 19.987 8.16658 21.2828 8.04754C22.4846 7.93716 23.6994 7.9462 24.8977 8.10773C25.7154 8.21796 26.5339 8.39905 27.3253 8.68539C27.9262 8.90281 28.5258 9.17309 29.0803 9.54299C29.8648 10.0662 30.5927 10.7946 30.9226 11.8713C31.1982 12.7705 31.1545 13.8376 30.9154 14.7416C30.6859 15.6091 30.2442 16.3644 29.7259 16.9903C29.1843 17.6443 28.55 18.171 27.8892 18.6092C27.1785 19.0805 26.4238 19.4576 25.6501 19.7242C25.3569 19.8251 25.0588 19.8915 24.761 19.9654C24.3475 20.0679 23.93 20.1486 23.5128 20.2233C22.6782 20.3726 21.8391 20.4821 20.9992 20.5709C19.4053 20.7394 17.805 20.8311 16.2056 20.852C15.6618 20.8591 15.1178 20.9061 14.5746 20.9404C13.4431 21.0117 12.3116 21.0842 11.1815 21.1897C9.50466 21.3461 7.8193 21.5581 6.17464 22.0155C5.39604 22.2321 4.62199 22.5053 3.88471 22.8933C3.16615 23.2715 2.47005 23.7633 1.89936 24.4418C1.34372 25.1026 0.928207 25.9327 0.728586 26.8691C0.511656 27.8869 0.542103 28.9896 0.680279 30.0215C0.810965 30.9972 1.08228 31.9502 1.50055 32.7871C1.91465 33.6155 2.45974 34.3224 3.08064 34.9035C4.37111 36.1116 5.99288 36.6283 7.56026 36.8896C9.23463 37.1687 10.9418 37.1412 12.6209 36.9424C13.4375 36.8454 14.2517 36.7128 15.0601 36.5363Z" fill="#081F1B"/>
<path d="M12.8589 35.8234C18.2667 34.0013 20.2692 30.2391 20.3891 30.0058C20.3919 30.0012 20.3928 29.9973 20.3948 29.9955V29.9945L17.1084 28.5425L12.0942 26.3276C12.0942 26.3276 10.4911 30.4298 12.8589 35.8234Z" fill="#F2C07E"/>
<path d="M15.1964 30.5338C15.49 30.6632 15.7837 30.7717 16.0744 30.8605C16.1396 30.8812 16.2047 30.9002 16.2698 30.918C18.0202 31.4023 19.6233 31.1503 20.2511 30.2496C20.252 30.2496 20.252 30.2487 20.252 30.2477C20.3077 30.1694 20.3549 30.0844 20.3946 29.9956V29.9947L30.9573 6.08628L27.6709 4.63424L22.6567 2.41846L12.0941 26.3279C11.5144 27.6383 12.9041 29.5218 15.1964 30.5338Z" fill="#B034F2"/>
<path d="M12.8589 35.8234C18.2667 34.0013 20.2692 30.239 20.3891 30.0058C20.3909 30.0021 20.3928 29.9992 20.3948 29.9955V29.9945L17.1084 28.5425L16.4975 29.9247C16.3568 30.2428 14.3874 34.8028 12.8589 35.8234Z" fill="#D6A86F"/>
<path d="M16.0744 30.8605C16.1396 30.8813 16.2047 30.9002 16.2698 30.9181C18.0202 31.4024 19.6233 31.1503 20.2511 30.2496C20.252 30.2496 20.252 30.2487 20.252 30.2478C20.3294 30.1194 20.3738 30.0353 20.3889 30.006C20.3908 30.0023 20.3926 29.9994 20.3946 29.9957V29.9947L30.9573 6.08631L27.6709 4.63428L17.1083 28.5428L16.4974 29.925C16.4615 30.0061 16.3086 30.3602 16.0744 30.8605Z" fill="#B034F2"/>
<path d="M22.6573 2.4184C23.2362 1.10806 25.5636 0.866715 27.8558 1.87934C30.1479 2.89196 31.5367 4.77509 30.9578 6.08543C30.3789 7.39577 28.0515 7.63712 25.7594 6.6245C23.4673 5.61187 22.0785 3.72874 22.6573 2.4184Z" fill="#D6A86F"/>
<path d="M28.2632 5.60307C28.5416 5.60307 28.7966 5.43901 28.9105 5.18111C29.0321 4.90604 28.9665 4.58408 28.7471 4.37838C28.3308 3.98814 27.7938 3.64197 27.194 3.37697C26.5943 3.11205 25.9766 2.94814 25.408 2.90314C25.1088 2.87916 24.8261 3.04767 24.7045 3.32291C24.5829 3.59799 24.6485 3.91994 24.8679 4.12564C25.2842 4.51588 25.8212 4.86213 26.421 5.12705C27.0208 5.39205 27.6384 5.55588 28.207 5.60088C28.2258 5.60229 28.2444 5.60307 28.2632 5.60307Z" fill="#081F1B"/>
<path d="M11.9204 32.9963C12.1215 33.8837 12.4227 34.8316 12.8589 35.8239V35.8248C12.8598 35.8248 12.8617 35.8239 12.8626 35.8239C13.8408 35.4934 14.7083 35.0997 15.4722 34.6749C15.4722 34.6749 15.1974 34.1037 14.6404 33.6005C14.0522 33.0718 13.1487 32.6187 11.9204 32.9963Z" fill="#081F1B"/>
<path d="M12.8589 35.8235H12.8626C13.8408 35.493 14.7083 35.0993 15.4722 34.6745C15.4722 34.6745 15.1974 34.1033 14.6404 33.6001C14.0645 34.5649 13.431 35.441 12.8589 35.8235Z" fill="#2B7C67"/>
</svg>
