<svg width="27" height="27" viewBox="0 0 27 27" fill="none" xmlns="http://www.w3.org/2000/svg">
<path fill-rule="evenodd" clip-rule="evenodd" d="M12.4544 16.1177L4.03928 19.1646L7.45439 26.1177L15.9261 23.0865L12.4166 16.1177H12.4544Z" fill="#2A2941"/>
<path fill-rule="evenodd" clip-rule="evenodd" d="M15.8317 14.9302C15.4922 14.8678 15.1714 14.7271 14.9261 14.5084C14.6809 14.3052 14.511 14.0396 14.4355 13.7584C14.3601 13.4771 14.3789 13.1803 14.4922 12.9146C14.6053 12.649 14.8129 12.399 15.0959 12.2271C15.36 12.0397 15.6997 11.9303 16.0393 11.899C16.3789 11.8678 16.7374 11.9146 17.0582 12.0397C17.379 12.1646 17.6431 12.3678 17.8318 12.6021C18.0205 12.8522 18.1148 13.1334 18.1148 13.4146C18.1148 13.6803 18.0393 13.9459 17.8695 14.1803L20.9638 13.0553L24.4732 20.024L16.0016 23.0865L14.662 20.3834C14.5676 20.6646 14.3789 20.9147 14.1148 21.1178C13.8507 21.3209 13.5299 21.4459 13.1903 21.4928C12.8506 21.5396 12.4921 21.5084 12.1525 21.4147C11.8317 21.3053 11.5299 21.1334 11.3224 20.8991C11.1148 20.6646 10.9827 20.3834 10.945 20.1022C10.9072 19.8053 10.9827 19.524 11.1337 19.2584C11.2846 18.9928 11.5299 18.774 11.8317 18.6334C12.1337 18.4772 12.4733 18.399 12.8318 18.399C13.1336 18.399 13.4355 18.4615 13.7186 18.5865L12.511 16.149L15.8317 14.9302Z" fill="#2A2941"/>
<path fill-rule="evenodd" clip-rule="evenodd" d="M10.1337 10.7584C10.6431 10.8365 10.4733 11.4146 10.4733 11.4146L9.28461 13.2427L6.0205 11.8677C6.22807 12.2114 6.28463 12.5865 6.17144 12.9615C6.05826 13.3365 5.77518 13.649 5.39787 13.8678C5.02049 14.0709 4.54879 14.1646 4.09598 14.1021C3.64316 14.0396 3.22802 13.8521 2.94502 13.5553C2.62426 13.2427 2.47332 12.8365 2.51108 12.4302C2.54883 12.024 2.7752 11.649 3.15259 11.3833C3.39784 11.2115 3.69971 11.1021 4.03935 11.0709L1.03937 9.80523L5.32236 3.16455L13.5677 6.64899L12.4545 8.36771C12.4545 8.36771 11.9639 8.88333 11.5676 8.52397C11.3601 8.274 11.1148 8.07082 10.8318 7.89895C10.6243 7.78962 10.379 7.71146 10.1337 7.6646C9.88844 7.63336 9.62424 7.63336 9.37899 7.68022C9.13367 7.72708 8.90729 7.82086 8.69973 7.94587C8.49216 8.07082 8.32234 8.22708 8.19028 8.41457C8.05822 8.60212 7.98278 8.80523 7.94503 9.00835C7.90728 9.21146 7.94503 9.43025 8.00159 9.63336C8.07709 9.83647 8.19028 10.024 8.36009 10.1802C8.52991 10.3365 8.7186 10.4771 8.94505 10.5709C9.36011 10.6802 9.75637 10.7584 10.1337 10.7584Z" fill="#2A2941"/>
<path fill-rule="evenodd" clip-rule="evenodd" d="M13.4167 14.1333L5.00156 17.1802L8.41667 24.149L16.8884 21.1177L13.3789 14.1489H13.4167V14.1333Z" fill="#32EDBB"/>
<path fill-rule="evenodd" clip-rule="evenodd" d="M18.1714 21.5239L13.9449 13.0552L3.73743 16.7427L7.88836 25.2115L18.1714 21.5239ZM13.4167 14.1333L5.00157 17.1802L8.41668 24.1489L16.8884 21.1177L13.3789 14.1489H13.4167V14.1333Z" fill="#2A2941"/>
<path fill-rule="evenodd" clip-rule="evenodd" d="M16.794 12.9459C16.4544 12.8834 16.1336 12.7428 15.8883 12.524C15.643 12.3209 15.4732 12.0553 15.3977 11.774C15.3223 11.4928 15.3412 11.1959 15.4543 10.9303C15.5675 10.6647 15.7751 10.4146 16.0581 10.2428C16.3222 10.0553 16.6619 9.94588 17.0015 9.91464C17.3411 9.88341 17.6996 9.93026 18.0204 10.0553C18.3411 10.1803 18.6053 10.3834 18.794 10.6178C18.9826 10.8678 19.077 11.1491 19.077 11.4303C19.077 11.6803 18.9826 11.9303 18.8317 12.1647L21.9072 11.0397L25.4166 18.0084L16.9449 21.0709L15.5675 18.3991C15.4355 18.7116 15.1902 18.9772 14.8695 19.1803C14.5487 19.3678 14.1524 19.4772 13.7563 19.4772C13.2657 19.4772 12.794 19.3209 12.4544 19.0241C12.1147 18.7428 11.9072 18.3521 11.9072 17.9459C11.9072 17.5397 12.0959 17.149 12.4544 16.8678C12.8128 16.5866 13.2657 16.4147 13.7563 16.4147C14.0581 16.4147 14.36 16.4772 14.643 16.6022L13.4354 14.1647L16.794 12.9459Z" fill="#FFB800"/>
<path fill-rule="evenodd" clip-rule="evenodd" d="M13.1147 15.6488C12.7186 15.7269 12.3412 15.8676 12.0015 16.0863C11.6808 16.2894 11.4167 16.5551 11.228 16.8676C11.0393 17.1801 10.9261 17.5082 10.9072 17.8519C10.8883 18.1957 10.9638 18.5394 11.1148 18.8519C11.2657 19.1645 11.511 19.4457 11.8129 19.6801C12.1148 19.9144 12.4732 20.0863 12.8695 20.1957C13.2658 20.3051 13.6808 20.3363 14.0959 20.2895C14.511 20.2425 14.9072 20.1332 15.2468 19.9613L16.36 22.2113L26.6431 18.4926L22.4166 10.0082L19.9638 10.8988C19.794 10.3363 19.3789 9.8519 18.8129 9.50816C18.228 9.18003 17.5299 9.0394 16.8317 9.10187C16.1337 9.16441 15.4922 9.44568 15.0205 9.86752C14.5488 10.305 14.2846 10.8519 14.2657 11.4301C14.2657 11.9144 14.4355 12.3831 14.7751 12.7738L12.1337 13.7269L13.1147 15.6488ZM16.794 12.9457C16.4544 12.8831 16.1337 12.7426 15.8883 12.5238C15.6431 12.305 15.4733 12.055 15.3978 11.7738C15.3223 11.4925 15.3412 11.1956 15.4544 10.9301C15.5676 10.6644 15.7752 10.4144 16.0582 10.2425C16.3223 10.055 16.6619 9.94568 17.0015 9.91438C17.3412 9.88314 17.6997 9.93 18.0204 10.055C18.3412 10.18 18.6053 10.3831 18.794 10.6176C18.9827 10.8675 19.077 11.1488 19.077 11.4301C19.0581 11.68 18.9827 11.9301 18.8318 12.1644L21.9072 11.0394L25.4167 18.0082L16.945 21.0707L15.5676 18.3988C15.4355 18.7113 15.1903 18.977 14.8695 19.1801C14.5488 19.3676 14.1525 19.477 13.7562 19.477C13.2658 19.477 12.794 19.3207 12.4544 19.0238C12.1148 18.7425 11.9072 18.3519 11.9072 17.9457C11.9072 17.5394 12.0959 17.1488 12.4544 16.8676C12.794 16.5863 13.2658 16.4144 13.7562 16.4144C14.0582 16.4144 14.3601 16.4769 14.6431 16.6019L13.4355 14.1644L16.794 12.9457Z" fill="#2A2941"/>
<path fill-rule="evenodd" clip-rule="evenodd" d="M11.0959 8.77393C11.6054 8.85203 11.4356 9.43019 11.4356 9.43019L10.2469 11.2583L6.98275 9.88333C7.13369 10.1489 7.20912 10.4302 7.17144 10.7271C7.13369 11.0083 7.00163 11.2895 6.79406 11.524C6.58649 11.7583 6.28461 11.9302 5.96386 12.024C5.6431 12.1177 5.28459 12.1489 4.94504 12.0864C4.6054 12.024 4.28465 11.8833 4.03933 11.6802C3.79408 11.477 3.60539 11.2271 3.52988 10.9458C3.45445 10.6645 3.45445 10.3677 3.56763 10.1021C3.68082 9.82079 3.88839 9.58644 4.15251 9.39895C4.39783 9.22708 4.69971 9.11768 5.03935 9.08644L2.03937 7.82079L6.32236 1.18018L14.5487 4.66455L13.4355 6.38327C13.4355 6.38327 12.945 6.89895 12.5488 6.52391C12.3412 6.28956 12.0959 6.07077 11.8129 5.8989C11.6054 5.78956 11.3601 5.7114 11.1148 5.66455C10.8695 5.63331 10.6054 5.63331 10.3601 5.68016C10.1148 5.72702 9.88842 5.8208 9.68085 5.94582C9.47328 6.07083 9.30346 6.22702 9.1714 6.41458C9.03934 6.60207 8.96383 6.80518 8.92615 7.00829C8.8884 7.2114 8.92615 7.43019 8.98271 7.6333C9.03934 7.83641 9.1714 8.02391 9.34122 8.18016C9.51103 8.33641 9.69972 8.47705 9.9261 8.57082C10.3035 8.69578 10.6997 8.77393 11.0959 8.77393Z" fill="#4C5EFD"/>
<path fill-rule="evenodd" clip-rule="evenodd" d="M3.11479 9.13334C2.69973 9.58648 2.49216 10.1646 2.52992 10.727C2.58647 11.3052 2.88835 11.8364 3.37892 12.2427C3.86949 12.6489 4.52988 12.8834 5.22802 12.9146C5.92608 12.9458 6.60534 12.7583 7.15254 12.4146C7.58648 12.1021 7.90724 11.6802 8.0393 11.2114L10.6242 12.2896L12.3035 9.69581V9.58648C12.36 9.33645 12.36 9.0708 12.3035 8.80521C12.2469 8.6021 12.1148 8.41455 11.9261 8.25829C11.7374 8.11772 11.4922 8.00832 11.2468 7.97709C11.077 7.97709 10.8695 7.93016 10.6997 7.91455C10.5865 7.91455 10.4733 7.88331 10.3601 7.85207C10.2468 7.80521 10.1525 7.72705 10.0959 7.64896C10.0205 7.5708 9.96383 7.47709 9.92607 7.38331C9.8884 7.28959 9.8884 7.1802 9.90727 7.08642C9.92607 6.99271 9.96383 6.88331 10.0205 6.80521C10.077 6.71144 10.1714 6.63334 10.2657 6.58642C10.3601 6.52395 10.4733 6.47709 10.5865 6.44579C10.6997 6.41455 10.8318 6.41455 10.945 6.43017C11.0582 6.44579 11.1903 6.47709 11.2846 6.52395C11.5298 6.63334 11.6242 6.83645 11.794 7.00833C12.0015 7.22706 12.3035 7.35207 12.6242 7.39893C12.945 7.43017 13.2846 7.36769 13.5488 7.22706C13.7563 7.11772 13.9449 6.97709 14.1148 6.82083L14.1714 6.7583L15.7752 4.27392L5.83177 0.117676L0.643066 8.10204L3.03929 9.1021L3.11479 9.13334ZM11.0959 8.77397C11.6054 8.85207 11.4355 9.43022 11.4355 9.43022L10.2468 11.2583L6.98273 9.8833C7.13367 10.149 7.2091 10.4302 7.17142 10.727C7.13367 11.0083 7.0016 11.2896 6.79403 11.5239C6.58647 11.7583 6.28459 11.9302 5.96383 12.0239C5.64308 12.1177 5.28457 12.1489 4.94501 12.0865C4.60538 12.0239 4.28463 11.8834 4.0393 11.6802C3.79406 11.4771 3.60536 11.2271 3.52986 10.9458C3.45443 10.6646 3.45443 10.3677 3.56761 10.1021C3.6808 9.82083 3.88837 9.58648 4.15257 9.39892C4.39781 9.22705 4.69969 9.11772 5.03932 9.08642L2.03935 7.82083L6.32234 1.18015L14.5487 4.66459L13.4355 6.38331C13.4355 6.38331 12.945 6.89893 12.5487 6.53956C12.3412 6.30521 12.0959 6.08642 11.8129 5.91455C11.6054 5.80522 11.36 5.72706 11.1148 5.6802C10.8695 5.64896 10.6053 5.64896 10.3601 5.69582C10.1148 5.74268 9.8884 5.83645 9.68083 5.96141C9.47326 6.08642 9.30344 6.24268 9.17138 6.43017C9.03932 6.61766 8.96381 6.82083 8.92613 7.02394C8.88838 7.22706 8.92613 7.44579 8.98269 7.64896C9.05819 7.85207 9.17138 8.03956 9.3412 8.19581C9.51101 8.35207 9.6997 8.4927 9.92607 8.58642C10.3035 8.69581 10.6997 8.75829 11.0959 8.77397Z" fill="#2A2941"/>
</svg>
