<svg width="38" height="38" viewBox="0 0 38 38" fill="none" xmlns="http://www.w3.org/2000/svg">
<path d="M9.06251 29.3125C8.75001 29.25 8.50001 29.1875 8.18751 29.0625C7.87501 28.9375 7.62501 28.875 7.37501 28.75C6.81251 28.5 6.31251 28.1875 5.81251 27.8125C4.81251 27.125 4.00001 26.1875 3.37501 25.0625C2.75001 24 2.37501 22.75 2.31251 21.5625C2.25001 20.9375 2.31251 20.375 2.37501 19.75C2.43751 19.4375 2.50001 19.1875 2.56251 18.875C2.62501 18.5625 2.75001 18.3125 2.81251 18L2.87501 18.875C2.87501 19.1875 2.93751 19.4375 3.00001 19.75C3.06251 20.3125 3.18751 20.875 3.31251 21.375C3.56251 22.4375 3.93751 23.4375 4.50001 24.375C5.06251 25.3125 5.68751 26.1875 6.50001 27C6.87501 27.375 7.31251 27.75 7.75001 28.125C7.93751 28.3125 8.18751 28.5 8.43751 28.6875L9.06251 29.3125Z" fill="#42ADE2"/>
<path d="M8.875 31.5625C8.6875 31.6875 8.4375 31.75 8.1875 31.8125C7.9375 31.875 7.75 31.9375 7.5 31.9375C7.0625 32 6.5625 32.0625 6.0625 32C5.125 31.9375 4.125 31.6875 3.3125 31.25C2.4375 30.8125 1.6875 30.125 1.1875 29.3125C0.9375 28.9375 0.6875 28.5 0.5 28.0625C0.4375 27.875 0.375 27.625 0.3125 27.375C0.3125 27.1875 0.25 27 0.25 26.75C0.4375 26.9375 0.5625 27.125 0.6875 27.25C0.875 27.4375 1 27.625 1.125 27.75C1.4375 28.0625 1.6875 28.375 2 28.625C2.625 29.1875 3.25 29.6875 4 30.0625C4.6875 30.4375 5.5 30.75 6.25 31C6.625 31.125 7.0625 31.1875 7.5 31.3125C7.6875 31.375 7.9375 31.375 8.125 31.4375C8.4375 31.5 8.625 31.5 8.875 31.5625Z" fill="#42ADE2"/>
<path d="M23 1.1875C23.3125 1.25 23.5625 1.375 23.875 1.5C24.1875 1.625 24.4375 1.75 24.6875 1.875C25.25 2.1875 25.75 2.5 26.25 2.875C27.25 3.625 28.0625 4.625 28.625 5.75C29.1875 6.875 29.5 8.125 29.5 9.3125C29.5 9.9375 29.4375 10.5 29.3125 11.125C29.25 11.4375 29.1875 11.6875 29.0625 12C28.9375 12.3125 28.875 12.5625 28.75 12.8125L28.6875 11.9375C28.6875 11.625 28.6875 11.375 28.625 11.0625L28.4375 9.375C28.25 8.3125 27.875 7.25 27.375 6.25C26.875 5.25 26.25 4.375 25.5 3.5625C25.125 3.125 24.6875 2.75 24.3125 2.3125C24.125 2.125 23.875 1.9375 23.625 1.75L23 1.1875Z" fill="#42ADE2"/>
<path d="M28.4375 0.9375C28.6875 1 28.875 1.0625 29.0625 1.1875C29.25 1.25 29.5 1.375 29.6875 1.5C30.0625 1.75 30.4375 2 30.8125 2.3125C31.5 2.9375 32.0625 3.6875 32.375 4.5625C32.75 5.4375 32.875 6.375 32.75 7.3125C32.6875 7.75 32.5625 8.1875 32.4375 8.625C32.375 8.8125 32.25 9.0625 32.1875 9.25C32.0625 9.4375 32 9.625 31.8125 9.8125V8.5625C31.8125 8.125 31.75 7.75 31.75 7.375C31.625 6.5625 31.5 5.8125 31.1875 5.125C30.875 4.375 30.5 3.75 30.0625 3.0625C29.8125 2.75 29.5625 2.375 29.3125 2.0625C29.1875 1.875 29.0625 1.75 28.875 1.5625C28.75 1.25 28.5625 1.0625 28.4375 0.9375Z" fill="#42ADE2"/>
<path d="M5.24995 10.2498C3.99995 10.8123 3.56245 12.3123 4.12495 13.5623L12 29.9998L16.375 27.9373L8.49995 11.4373C7.93745 10.1873 6.49995 9.62484 5.24995 10.2498Z" fill="#FFDD67"/>
<path d="M25.9373 23.3123L30.5623 21.1248L21.5623 2.37484C20.9373 1.12484 19.4373 0.56234 18.1248 1.18734C16.8748 1.81234 16.3123 3.31234 16.9373 4.62484L25.9373 23.3123Z" fill="#FFDD67"/>
<path d="M18.1875 1.12496C18.0625 1.18746 17.9375 1.24996 17.8125 1.37496C19 1.06246 20.25 1.62496 20.8125 2.74996L29.8125 21.5L30.625 21.125L21.625 2.37496C21 1.06246 19.5 0.499956 18.1875 1.12496Z" fill="#EBA352"/>
<path d="M16.375 27.8749L21.1875 25.5624L12 6.43736C11.375 5.12486 9.74996 4.49986 8.43746 5.12486C7.12496 5.74986 6.56246 7.37486 7.18746 8.68736L16.375 27.8749Z" fill="#FFDD67"/>
<path d="M8.4375 5.1876C8.3125 5.2501 8.1875 5.3126 8.0625 5.4376C9.25 5.1251 10.625 5.6876 11.1875 6.8751L16.875 18.8126L18.25 19.6251L12 6.5001C11.375 5.1251 9.8125 4.5626 8.4375 5.1876Z" fill="#EBA352"/>
<path d="M20.4375 24.0623L25.25 21.7498L16.0625 2.62481C15.4375 1.31231 13.8125 0.687307 12.5 1.37481C11.1875 1.99981 10.625 3.62481 11.25 4.93731L20.4375 24.0623Z" fill="#FFDD67"/>
<path d="M12.5 1.3126C12.375 1.3751 12.25 1.5001 12.125 1.5626C13.3125 1.2501 14.6875 1.8126 15.25 3.0001L21.6875 16.5001L23.0625 17.3126L16.0625 2.6251C15.4375 1.2501 13.8125 0.687604 12.5 1.3126Z" fill="#EBA352"/>
<path d="M5.25 10.25C5.125 10.3125 5 10.375 4.875 10.5C6 10.1875 7.1875 10.75 7.6875 11.875L12.375 21.6875L13.75 22.5L8.5 11.5C7.9375 10.1875 6.5 9.62496 5.25 10.25Z" fill="#EBA352"/>
<path d="M36.9999 8.37483C35.3124 7.06233 32.5624 8.49983 31.1874 12.9998C30.2499 16.1248 30.1249 17.0623 28.1249 17.9998L26.9999 15.6873C26.9999 15.6873 9.24994 24.2498 9.93744 25.6248C9.93744 25.6248 12.0624 32.2498 15.6874 35.3123C21.0624 39.9373 33.6249 34.9998 34.1874 23.0623C34.4999 16.1248 38.8124 9.81233 36.9999 8.37483Z" fill="#FFDD67"/>
<path d="M37 8.375C36.6875 8.125 36.3125 8 35.9375 7.9375C36 8 36.125 8 36.1875 8.0625C38.0625 9.5 36.125 12.8125 35.0625 15.8125C34.1875 18.1875 33.4375 20.625 33.5625 23C34.0625 33.375 23.625 38.3125 17.375 36.4375C23.5 39 34.875 34.125 34.375 23.3125C34.25 20.9375 34.9375 18.625 35.875 16.125C36.875 13.125 38.8125 9.8125 37 8.375Z" fill="#EBA352"/>
<path d="M28.6875 17.75C24.8125 18.1875 19.125 23.75 23.125 29.8125C20.1875 23.6875 25 19.5625 28.0625 18.125C28.375 17.875 28.6875 17.75 28.6875 17.75Z" fill="#EBA352"/>
</svg>
